<svg width="923" height="186" viewBox="0 0 923 186" fill="none" xmlns="http://www.w3.org/2000/svg">
<g filter="url(#filter0_f)">
<path d="M117.749 172.355C117.749 168.475 116.821 166.271 114.963 165.742C114.383 165.566 113.802 165.477 113.222 165.477H107.301L67.4222 13.6452H60.9789L21.971 165.477H11V172.355H41.9974C41.9974 168.475 41.0686 166.271 39.2111 165.742C38.6306 165.566 38.0502 165.477 37.4697 165.477H28.9367L41.9974 114.161H78.3932L91.4539 165.477H80.1346V172.355H117.749ZM76.4776 106.49H43.913L60.1082 42.4774L76.4776 106.49Z" fill="#A9A5A5"/>
<path d="M198.593 20.5226H213.396V139.026L147.221 13.6452H123.016V20.5226H136.947V165.477H123.016V172.355H158.715C158.715 168.475 157.786 166.271 155.928 165.742C155.348 165.566 154.768 165.477 154.187 165.477H143.913V43.0064L212.351 173.677L220.361 171.032V20.5226H234.293V13.6452H198.593V20.5226Z" fill="#A9A5A5"/>
<path d="M344.567 172.355C344.567 168.475 343.638 166.271 341.78 165.742C341.2 165.566 340.62 165.477 340.039 165.477H334.118L294.24 13.6452H287.796L248.788 165.477H237.817V172.355H268.815C268.815 168.475 267.886 166.271 266.028 165.742C265.448 165.566 264.867 165.477 264.287 165.477H255.754L268.815 114.161H305.21L318.271 165.477H306.952V172.355H344.567ZM303.295 106.49H270.73L286.926 42.4774L303.295 106.49Z" fill="#A9A5A5"/>
<path d="M430.983 130.826C430.983 115.131 425.411 102.523 414.266 93C412.06 91.2366 405.268 86.5634 393.891 78.9806C383.558 72.2796 377.057 65.4021 374.387 58.3484C372.994 54.4688 372.297 50.3247 372.297 45.9161C372.297 34.1011 376.07 25.9011 383.617 21.3161C386.867 19.3763 390.466 18.4065 394.413 18.4065C404.165 18.4065 411.595 23.4323 416.704 33.4839C420.07 40.3613 421.696 48.7376 421.58 58.6129H426.804V12.3226C424.018 12.3226 422.392 13.6452 421.928 16.2903C421.696 17.5247 421.58 19.2 421.58 21.3161C413.337 14.4387 404.049 11 393.717 11C381.178 11 371.427 16.2903 364.461 26.871C359.817 34.2774 357.495 42.9183 357.495 52.7935C357.495 67.6064 362.952 79.686 373.865 89.0322C375.838 90.6193 382.456 95.1161 393.717 102.523C404.165 109.576 410.783 116.718 413.569 123.948C415.078 128.004 415.833 132.413 415.833 137.174C415.833 149.518 411.886 158.424 403.991 163.89C400.276 166.359 396.155 167.594 391.627 167.594C373.865 167.241 363.996 150.753 362.023 118.129H356.799V172.884C359.585 172.884 361.21 171.649 361.675 169.181C361.907 167.77 362.023 165.213 362.023 161.51C370.962 170.503 381.12 175 392.498 175C405.849 175 416.181 169.533 423.495 158.6C428.487 150.841 430.983 141.583 430.983 130.826Z" fill="#A9A5A5"/>
<path d="M514.962 172.355C514.962 168.475 514.033 166.271 512.176 165.742C511.595 165.566 511.015 165.477 510.434 165.477H498.592V20.5226H508.693C518.096 20.5226 524.366 29.1634 527.5 46.4452C527.5 47.1505 527.558 47.6796 527.674 48.0323L530.461 65.7548H535.337L534.466 13.6452H448.439L447.569 65.7548H452.445L455.231 48.0323C458.946 30.7505 465.273 21.5806 474.212 20.5226H483.616V165.477H467.073V172.355H514.962Z" fill="#A9A5A5"/>
<path d="M649.964 172.355C649.964 168.475 649.035 166.271 647.178 165.742C646.597 165.566 646.017 165.477 645.436 165.477H639.516L599.637 13.6452H593.194L554.186 165.477H543.215V172.355H574.212C574.212 168.475 573.283 166.271 571.426 165.742C570.845 165.566 570.265 165.477 569.684 165.477H561.151L574.212 114.161H610.608L623.669 165.477H612.349V172.355H649.964ZM608.692 106.49H576.128L592.323 42.4774L608.692 106.49Z" fill="#A9A5A5"/>
<path d="M736.381 130.826C736.381 115.131 730.808 102.523 719.663 93C717.457 91.2366 710.666 86.5634 699.288 78.9806C688.956 72.2796 682.455 65.4021 679.784 58.3484C678.391 54.4688 677.695 50.3247 677.695 45.9161C677.695 34.1011 681.468 25.9011 689.014 21.3161C692.265 19.3763 695.864 18.4065 699.811 18.4065C709.563 18.4065 716.993 23.4323 722.101 33.4839C725.468 40.3613 727.093 48.7376 726.977 58.6129H732.201V12.3226C729.415 12.3226 727.79 13.6452 727.325 16.2903C727.093 17.5247 726.977 19.2 726.977 21.3161C718.734 14.4387 709.447 11 699.114 11C686.576 11 676.824 16.2903 669.858 26.871C665.214 34.2774 662.893 42.9183 662.893 52.7935C662.893 67.6064 668.349 79.686 679.262 89.0322C681.236 90.6193 687.853 95.1161 699.114 102.523C709.563 109.576 716.18 116.718 718.966 123.948C720.476 128.004 721.23 132.413 721.23 137.174C721.23 149.518 717.283 158.424 709.389 163.89C705.674 166.359 701.552 167.594 697.024 167.594C679.262 167.241 669.394 150.753 667.42 118.129H662.196V172.884C664.982 172.884 666.608 171.649 667.072 169.181C667.304 167.77 667.42 165.213 667.42 161.51C676.36 170.503 686.518 175 697.895 175C711.246 175 721.579 169.533 728.893 158.6C733.885 150.841 736.381 141.583 736.381 130.826Z" fill="#A9A5A5"/>
<path d="M796.502 172.355C796.502 168.475 795.573 166.271 793.715 165.742C793.135 165.566 792.555 165.477 791.974 165.477H782.744V20.5226H796.502V13.6452H753.837V20.5226H767.768V165.477H753.837V172.355H796.502Z" fill="#A9A5A5"/>
<path d="M912 172.355C912 168.475 911.071 166.271 909.214 165.742C908.633 165.566 908.053 165.477 907.472 165.477H901.552L861.673 13.6452H855.23L816.222 165.477H805.251V172.355H836.248C836.248 168.475 835.319 166.271 833.462 165.742C832.881 165.566 832.301 165.477 831.72 165.477H823.187L836.248 114.161H872.644L885.705 165.477H874.385V172.355H912ZM870.728 106.49H838.164L854.359 42.4774L870.728 106.49Z" fill="#A9A5A5"/>
</g>
<defs>
<filter id="filter0_f" x="0" y="0" width="923" height="186" filterUnits="userSpaceOnUse" color-interpolation-filters="sRGB">
<feFlood flood-opacity="0" result="BackgroundImageFix"/>
<feBlend mode="normal" in="SourceGraphic" in2="BackgroundImageFix" result="shape"/>
<feGaussianBlur stdDeviation="5.5" result="effect1_foregroundBlur"/>
</filter>
</defs>
</svg>
