<svg width="213" height="87" viewBox="0 0 213 87" fill="none" xmlns="http://www.w3.org/2000/svg">
<path d="M28.0781 29L37.3594 2.09375H39.7031V0.875H32.1094V2.09375H35.8594L28.5 24.2188L20.9531 2.09375H24.75V0.875H16.6875L19.875 9.875L14.9531 24.125L7.03125 2.09375H10.8281V0.875H0.515625V2.09375H3.28125L11.9062 26.1875C12.5312 27.9688 13.0938 28.9531 13.5938 29.1406C13.7812 29.2031 13.9688 29.2344 14.1562 29.2344H14.5312L20.625 12.0312L25.6406 26.1875C26.2031 27.7812 26.6562 28.6719 27 28.8594C27.1875 28.9531 27.4219 29 27.7031 29H28.0781ZM63.4219 9.3125L63.1875 0.875H41.5781V2.09375H45.3281V27.7812H41.5781V29H63.1875L63.4219 20.5625H62.4844L61.8281 22.7656C61.0469 25.4219 59.8906 27.0156 58.3594 27.5469C57.8906 27.7031 57.3906 27.7812 56.8594 27.7812H49.3594V15.1719H59.0156V13.8125H49.3594V2.09375H56.8594C59.1094 2.09375 60.7188 3.60938 61.6875 6.64062C61.75 6.82812 61.7969 6.98438 61.8281 7.10938L62.4844 9.3125H63.4219ZM88.1719 29L88.4062 19.625H87.4688L86.6719 22.7656C85.9219 25.6406 84.6719 27.2812 82.9219 27.6875C82.5469 27.75 82.1875 27.7812 81.8438 27.7812H75.4219V2.09375H79.3594V0.875H67.6406V2.09375H71.3906V27.7812H67.6406V29H88.1719ZM114.562 26.8438C114.562 28.1562 114.75 28.9062 115.125 29.0938C115.344 29.1875 115.641 29.2344 116.016 29.2344V20.375H114.891C113.297 25.5312 110.109 28.125 105.328 28.1562C101.266 28.1562 98.5 26.1094 97.0312 22.0156C96.3125 20.0156 95.9531 17.6562 95.9531 14.9375C95.9531 9.09375 97.5625 5.125 100.781 3.03125C102.188 2.15625 103.75 1.71875 105.469 1.71875C109.375 1.71875 112.203 3.5625 113.953 7.25C114.266 7.90625 114.531 8.57812 114.75 9.26562H115.875L115.734 0.640625C115.047 0.640625 114.625 0.859375 114.469 1.29688C114.375 1.67188 114.328 2.28125 114.328 3.125C113.422 2.21875 111.875 1.48438 109.688 0.921875C108.25 0.578125 106.781 0.40625 105.281 0.40625C100.344 0.40625 96.5625 2.23438 93.9375 5.89062C92.125 8.48438 91.2188 11.4688 91.2188 14.8438C91.2188 18.9375 92.4844 22.375 95.0156 25.1562C97.7031 28.0312 101.203 29.4688 105.516 29.4688C108.672 29.4375 111.688 28.5625 114.562 26.8438ZM134.766 0.40625C131.016 0.40625 127.797 1.64063 125.109 4.10938C122.172 6.82812 120.703 10.375 120.703 14.75C120.703 19.8125 122.438 23.7188 125.906 26.4688C128.438 28.4688 131.344 29.4688 134.625 29.4688C138.312 29.4688 141.484 28.2188 144.141 25.7188C147.109 22.9375 148.594 19.3438 148.594 14.9375C148.594 9.78125 146.797 5.85938 143.203 3.17188C140.766 1.32812 137.953 0.40625 134.766 0.40625ZM134.766 28.1562C130.234 28.1562 127.328 25.7344 126.047 20.8906C125.609 19.1719 125.391 17.1875 125.391 14.9375C125.391 7.5 127.641 3.1875 132.141 2C132.922 1.8125 133.75 1.71875 134.625 1.71875C140.781 1.78125 143.875 6.125 143.906 14.75C143.906 21.5625 142.016 25.7969 138.234 27.4531C137.172 27.9219 136.016 28.1562 134.766 28.1562ZM187.781 0.875H180.281L170.156 23.7969L159.281 0.875H152.578V2.09375H156.328V27.7812H152.578V29H161.953C161.953 28.3125 161.703 27.9219 161.203 27.8281C161.047 27.7969 160.891 27.7812 160.734 27.7812H158.203V7.625L168.469 29.2344H169.453L180.281 5.09375V27.7812H176.531V29H187.781C187.781 28.3125 187.531 27.9219 187.031 27.8281C186.875 27.7969 186.719 27.7812 186.562 27.7812H184.031V2.09375H187.781V0.875ZM212.906 9.3125L212.672 0.875H191.062V2.09375H194.812V27.7812H191.062V29H212.672L212.906 20.5625H211.969L211.312 22.7656C210.531 25.4219 209.375 27.0156 207.844 27.5469C207.375 27.7031 206.875 27.7812 206.344 27.7812H198.844V15.1719H208.5V13.8125H198.844V2.09375H206.344C208.594 2.09375 210.203 3.60938 211.172 6.64062C211.234 6.82812 211.281 6.98438 211.312 7.10938L211.969 9.3125H212.906ZM62.9531 86C62.9531 85.3125 62.7031 84.9219 62.2031 84.8281C62.0469 84.7969 61.8906 84.7812 61.7344 84.7812H58.5469V59.0938H61.2656C63.7969 59.0938 65.4844 60.625 66.3281 63.6875C66.3281 63.8125 66.3438 63.9062 66.375 63.9688L67.125 67.1094H68.4375L68.2031 57.875H45.0469L44.8125 67.1094H46.125L46.875 63.9688C47.875 60.9062 49.5781 59.2812 51.9844 59.0938H54.5156V84.7812H50.0625V86H62.9531ZM86.7188 57.4062C82.9688 57.4062 79.75 58.6406 77.0625 61.1094C74.125 63.8281 72.6562 67.375 72.6562 71.75C72.6562 76.8125 74.3906 80.7188 77.8594 83.4688C80.3906 85.4688 83.2969 86.4688 86.5781 86.4688C90.2656 86.4688 93.4375 85.2188 96.0938 82.7188C99.0625 79.9375 100.547 76.3438 100.547 71.9375C100.547 66.7812 98.75 62.8594 95.1562 60.1719C92.7188 58.3281 89.9062 57.4062 86.7188 57.4062ZM86.7188 85.1562C82.1875 85.1562 79.2812 82.7344 78 77.8906C77.5625 76.1719 77.3438 74.1875 77.3438 71.9375C77.3438 64.5 79.5938 60.1875 84.0938 59C84.875 58.8125 85.7031 58.7188 86.5781 58.7188C92.7344 58.7812 95.8281 63.125 95.8594 71.75C95.8594 78.5625 93.9688 82.7969 90.1875 84.4531C89.125 84.9219 87.9688 85.1562 86.7188 85.1562ZM141 86C141 85.3125 140.75 84.9219 140.25 84.8281C140.094 84.7969 139.938 84.7812 139.781 84.7812H138.188L127.453 57.875H125.719L115.219 84.7812H112.266V86H120.609C120.609 85.3125 120.359 84.9219 119.859 84.8281C119.703 84.7969 119.547 84.7812 119.391 84.7812H117.094L120.609 75.6875H130.406L133.922 84.7812H130.875V86H141ZM129.891 74.3281H121.125L125.484 62.9844L129.891 74.3281ZM142.875 57.875V59.0938H146.625V84.7812H142.875V86H155.812C160.031 86 163.5 84.6875 166.219 82.0625C168.906 79.4688 170.25 76.0938 170.25 71.9375C170.25 66.5625 168.281 62.625 164.344 60.125C161.938 58.625 159.141 57.875 155.953 57.875H142.875ZM155.812 59.0938C160.75 59.0938 163.828 61.3438 165.047 65.8438C165.516 67.5 165.75 69.4688 165.75 71.75C165.75 79.5312 163.094 83.8281 157.781 84.6406C157.188 84.7344 156.578 84.7812 155.953 84.7812H150.656V59.0938H155.812Z" fill="black"/>
</svg>
