<svg width="517" height="73" viewBox="0 0 517 73" fill="none" xmlns="http://www.w3.org/2000/svg">
<g filter="url(#filter0_f)">
<path d="M38.9062 40.6875V43.125H47.3438V57.75C44.2188 61.5 40.0312 63.5938 34.7812 64.0312C34.2812 64.0938 33.7812 64.125 33.2812 64.125C20.8438 64 14.5938 55.25 14.5312 37.875C14.5312 23 19.0312 14.375 28.0312 12C29.5938 11.625 31.25 11.4375 33 11.4375C39.4375 11.4375 44.0938 13.2188 46.9688 16.7812C48.8438 19.2188 50.5312 23.0312 52.0312 28.2188H54.4688L54 10.0312L45.8438 11.7188C41.9062 9.78125 37.7188 8.8125 33.2812 8.8125C25.7812 8.8125 19.3438 11.2813 13.9688 16.2188C8.09375 21.6562 5.15625 28.75 5.15625 37.5C5.15625 47.5 8.71875 55.3125 15.8438 60.9375C21.0312 64.9375 26.8438 66.9375 33.2812 66.9375C37.9688 66.9375 42.2188 65.9062 46.0312 63.8438C46.5312 63.5938 46.9375 63.3438 47.25 63.0938L55.2188 66V43.125H62.25V40.6875H38.9062ZM89.3662 27.5625C93.7412 27.5625 96.6475 29.4062 98.085 33.0938C98.585 34.2812 98.835 35.5625 98.835 36.9375C98.835 40.0625 97.335 41.9688 94.335 42.6562C92.7725 42.9688 90.5537 43.0938 87.6787 43.0312L77.7412 42.75C78.0537 35.5625 80.3975 30.875 84.7725 28.6875C86.21 27.9375 87.7412 27.5625 89.3662 27.5625ZM105.679 57L103.335 56.1562C101.147 60.9062 97.6162 63.5938 92.7412 64.2188C92.1162 64.2812 91.5225 64.3125 90.96 64.3125C84.3975 64.3125 80.2725 60.4062 78.585 52.5938C78.085 50.4062 77.8037 48 77.7412 45.375L88.9912 45.5625C96.6162 45.6875 101.522 44.9688 103.71 43.4062C105.397 42.1562 106.241 40.375 106.241 38.0625C106.241 33.8125 104.085 30.4375 99.7725 27.9375C96.71 26.125 93.1787 25.2188 89.1787 25.2188C81.3662 25.2188 75.7725 28.4688 72.3975 34.9688C70.6475 38.3438 69.7725 42.1562 69.7725 46.4062C69.7725 54.1562 72.5537 59.9062 78.1162 63.6562C81.4287 65.8438 85.21 66.9375 89.46 66.9375C96.21 66.9375 101.179 64.5 104.366 59.625C104.866 58.75 105.304 57.875 105.679 57ZM112.357 28.5H118.92V54.9375C119.357 62.75 122.951 66.7812 129.701 67.0312C135.451 67.0312 139.045 63.5 140.482 56.4375C140.482 56.375 140.482 56.3125 140.482 56.25L137.951 55.7812C136.389 60.9688 134.107 63.7812 131.107 64.2188C127.732 64.0938 126.014 61.6875 125.951 57V28.5H140.482V26.1562H125.951V15.2812L118.92 17.25V26.1562H112.357V28.5ZM183.184 63.6562H178.496V26.1562H163.965V28.5H171.465V58.0312C171.465 60.9062 170.496 62.6562 168.559 63.2812C167.621 63.5312 166.09 63.6562 163.965 63.6562V66H185.527C185.527 64.625 185.059 63.875 184.121 63.75C183.809 63.6875 183.496 63.6562 183.184 63.6562ZM179.621 12.4688C179.621 10.2812 178.652 8.71875 176.715 7.78125C175.965 7.46875 175.246 7.3125 174.559 7.3125C172.371 7.3125 170.809 8.3125 169.871 10.3125C169.559 11 169.402 11.7188 169.402 12.4688C169.402 14.7812 170.434 16.375 172.496 17.25C173.184 17.5 173.871 17.625 174.559 17.625C176.746 17.625 178.277 16.625 179.152 14.625C179.465 13.9375 179.621 13.2188 179.621 12.4688ZM210.394 63.6562H206.175V43.4062C206.363 37.5938 208.425 33.4062 212.363 30.8438C214.05 29.7812 215.769 29.25 217.519 29.25C221.331 29.25 223.925 31.0312 225.3 34.5938C225.863 36.0312 226.144 37.6562 226.144 39.4688V58.0312C226.144 60.9062 225.331 62.625 223.706 63.1875C222.769 63.5 221.238 63.6562 219.113 63.6562V66H240.206C240.206 64.625 239.738 63.875 238.8 63.75C238.55 63.6875 238.238 63.6562 237.863 63.6562H233.175V40.4062C233.175 34.1562 231.019 29.6875 226.706 27C224.706 25.8125 222.55 25.2188 220.238 25.2188C215.613 25.2188 211.8 27.0625 208.8 30.75C207.675 32.1875 206.769 33.7812 206.081 35.5312L205.706 26.1562H192.113V28.5H199.144V58.0312C199.144 60.9062 198.331 62.625 196.706 63.1875C195.769 63.5 194.238 63.6562 192.113 63.6562V66H212.738C212.738 64.625 212.269 63.875 211.331 63.75C211.081 63.6875 210.769 63.6562 210.394 63.6562ZM264.626 28.5H271.189V54.9375C271.626 62.75 275.22 66.7812 281.97 67.0312C287.72 67.0312 291.314 63.5 292.751 56.4375C292.751 56.375 292.751 56.3125 292.751 56.25L290.22 55.7812C288.658 60.9688 286.376 63.7812 283.376 64.2188C280.001 64.0938 278.283 61.6875 278.22 57V28.5H292.751V26.1562H278.22V15.2812L271.189 17.25V26.1562H264.626V28.5ZM305.899 46.0312C305.899 36.3438 308.555 30.4375 313.867 28.3125C315.242 27.8125 316.68 27.5625 318.18 27.5625C325.117 27.5625 329.149 31.9375 330.274 40.6875C330.461 42.1875 330.555 43.8438 330.555 45.6562C330.555 56.1562 327.68 62.3125 321.93 64.125C320.805 64.4375 319.649 64.5938 318.461 64.5938C312.149 64.5938 308.18 60.8438 306.555 53.3438C306.117 51.1562 305.899 48.7188 305.899 46.0312ZM318.461 25.2188C312.461 25.2188 307.461 27.2812 303.461 31.4062C299.774 35.2188 297.93 39.9688 297.93 45.6562C297.93 53.5312 300.805 59.4375 306.555 63.375C310.055 65.75 313.93 66.9375 318.18 66.9375C324.18 66.9375 329.149 64.8125 333.086 60.5625C336.711 56.6875 338.524 51.8438 338.524 46.0312C338.524 38.1562 335.617 32.3125 329.805 28.5C326.367 26.3125 322.586 25.2188 318.461 25.2188ZM391.515 63.6562H386.828V26.1562H372.109V28.5H379.796V48.75C379.796 54.375 377.828 58.5 373.89 61.125C372.14 62.3125 370.328 62.9062 368.453 62.9062C363.328 62.9062 360.359 60.2812 359.546 55.0312C359.421 54.1562 359.359 53.2188 359.359 52.2188V26.1562H345.109V28.5H352.328V50.8125C352.39 61.5 356.859 66.875 365.734 66.9375C370.421 66.9375 374.265 65.0312 377.265 61.2188C378.39 59.7812 379.296 58.1875 379.984 56.4375L380.64 66H393.859C393.859 64.625 393.39 63.875 392.453 63.75C392.203 63.6875 391.89 63.6562 391.515 63.6562ZM401.1 46.5C401.1 54.0625 403.881 59.7188 409.444 63.4688C412.881 65.7812 416.788 66.9375 421.163 66.9375C427.663 66.9375 432.569 64.6562 435.881 60.0938C436.631 59.0312 437.225 57.9688 437.663 56.9062L435.225 56.0625C432.913 61 429.1 63.7188 423.788 64.2188C423.288 64.2812 422.788 64.3125 422.288 64.3125C417.85 64.3125 414.381 62.0938 411.881 57.6562C410.006 54.2812 409.069 50.2812 409.069 45.6562C409.069 37.4688 411.225 32 415.538 29.25C417.35 28.125 419.35 27.5625 421.538 27.5625C424.913 27.5625 426.944 28.875 427.631 31.5C427.756 32 427.913 32.7812 428.1 33.8438C428.475 36.3438 429.163 37.9062 430.163 38.5312C430.788 38.8438 431.475 39.0312 432.225 39.0938C434.35 39.2188 435.694 38.3438 436.256 36.4688C436.381 36.0312 436.444 35.625 436.444 35.25C436.444 32.0625 434.413 29.4375 430.35 27.375C427.475 25.9375 424.35 25.2188 420.975 25.2188C412.6 25.2188 406.756 28.625 403.444 35.4375C401.881 38.6875 401.1 42.375 401.1 46.5ZM460.841 63.6562H456.154V43.4062C456.154 37.7188 458.122 33.5938 462.06 31.0312C463.685 29.9688 465.372 29.4375 467.122 29.4375C470.935 29.4375 473.591 31.2188 475.091 34.7812C475.779 36.4688 476.122 38.3438 476.122 40.4062V58.0312C476.122 60.9062 475.435 62.625 474.06 63.1875C473.185 63.5 471.685 63.6562 469.56 63.6562V66H490.185C490.185 64.625 489.716 63.875 488.779 63.75C488.529 63.6875 488.216 63.6562 487.841 63.6562H483.154V40.4062C483.154 33.5938 480.904 28.9688 476.404 26.5312C474.654 25.6562 472.779 25.2188 470.779 25.2188C466.154 25.2188 462.279 26.9062 459.154 30.2812C457.841 31.7188 456.841 33.3438 456.154 35.1562V5.0625H442.091V7.40625H449.122V58.0312C449.122 60.9062 448.31 62.625 446.685 63.1875C445.747 63.5 444.216 63.6562 442.091 63.6562V66H463.185C463.185 64.625 462.716 63.875 461.779 63.75C461.529 63.6875 461.216 63.6562 460.841 63.6562ZM508.02 50.3438C508.02 42.3438 508.864 33.4688 510.551 23.7188C511.239 19.7812 511.582 16.8125 511.582 14.8125C511.582 11.125 510.239 9.15625 507.551 8.90625C507.301 8.84375 507.02 8.8125 506.707 8.8125C503.457 8.9375 501.801 11 501.739 15C501.739 16.6875 502.27 20.8125 503.332 27.375C504.582 34.8125 505.207 42.4688 505.207 50.3438H508.02ZM511.301 61.6875C511.301 59.625 510.364 58.1562 508.489 57.2812C507.864 56.9688 507.207 56.8125 506.52 56.8125C504.457 56.8125 503.02 57.75 502.207 59.625C501.895 60.3125 501.739 61 501.739 61.6875C501.739 63.6875 502.645 65.125 504.457 66C505.145 66.3125 505.832 66.4688 506.52 66.4688C508.52 66.4688 509.957 65.5625 510.832 63.75C511.145 63.0625 511.301 62.375 511.301 61.6875Z" fill="#FFFCDD"/>
</g>
<defs>
<filter id="filter0_f" x="0.15625" y="0.0625" width="516.426" height="71.9688" filterUnits="userSpaceOnUse" color-interpolation-filters="sRGB">
<feFlood flood-opacity="0" result="BackgroundImageFix"/>
<feBlend mode="normal" in="SourceGraphic" in2="BackgroundImageFix" result="shape"/>
<feGaussianBlur stdDeviation="2.5" result="effect1_foregroundBlur"/>
</filter>
</defs>
</svg>
