<svg width="673" height="89" viewBox="0 0 673 89" fill="none" xmlns="http://www.w3.org/2000/svg">
<g filter="url(#filter0_f)">
<path d="M52.2812 63.6563H47.5937L47.5938 26.1563L32.875 26.1563V28.5L40.5625 28.5V48.75C40.5625 54.375 38.5937 58.5 34.6562 61.125C32.9062 62.3125 31.0937 62.9063 29.2187 62.9063C24.0937 62.9062 21.125 60.2812 20.3125 55.0312C20.1875 54.1562 20.125 53.2188 20.125 52.2188L20.125 26.1563L5.875 26.1562V28.5H13.0937L13.0937 50.8125C13.1562 61.5 17.625 66.875 26.5 66.9375C31.1875 66.9375 35.0312 65.0312 38.0312 61.2188C39.1562 59.7813 40.0625 58.1875 40.75 56.4375L41.4062 66H54.625C54.625 64.625 54.1562 63.875 53.2187 63.75C52.9687 63.6875 52.6562 63.6563 52.2812 63.6563Z" fill="#FEECAC"/>
<path d="M79.21 63.6563H74.9912L74.9912 43.4063C75.1787 37.5938 77.2412 33.4063 81.1787 30.8438C82.8662 29.7813 84.585 29.25 86.335 29.25C90.1475 29.25 92.7412 31.0313 94.1162 34.5938C94.6787 36.0313 94.96 37.6563 94.96 39.4688L94.96 58.0313C94.96 60.9063 94.1475 62.625 92.5225 63.1875C91.585 63.5 90.0537 63.6563 87.9287 63.6563V66H109.022C109.022 64.625 108.554 63.875 107.616 63.75C107.366 63.6875 107.054 63.6563 106.679 63.6563H101.991L101.991 40.4063C101.991 34.1563 99.835 29.6875 95.5225 27C93.5225 25.8125 91.3662 25.2188 89.0537 25.2188C84.4287 25.2188 80.6162 27.0625 77.6162 30.75C76.4912 32.1875 75.585 33.7813 74.8975 35.5313L74.5225 26.1563L60.9287 26.1563L60.9287 28.5L67.96 28.5V58.0313C67.96 60.9063 67.1475 62.625 65.5225 63.1875C64.585 63.5 63.0537 63.6563 60.9287 63.6563V66L81.5537 66C81.5537 64.625 81.085 63.875 80.1475 63.75C79.8975 63.6875 79.585 63.6563 79.21 63.6563Z" fill="#FEECAC"/>
<path d="M134.357 63.6563H129.67V26.1563L115.139 26.1563V28.5H122.639L122.639 58.0313C122.639 60.9063 121.67 62.6563 119.732 63.2813C118.795 63.5313 117.264 63.6563 115.139 63.6563V66L136.701 66C136.701 64.625 136.232 63.875 135.295 63.75C134.982 63.6875 134.67 63.6563 134.357 63.6563ZM130.795 12.4688C130.795 10.2813 129.826 8.71875 127.889 7.78125C127.139 7.46875 126.42 7.3125 125.732 7.3125C123.545 7.3125 121.982 8.3125 121.045 10.3125C120.732 11 120.576 11.7188 120.576 12.4688C120.576 14.7813 121.607 16.375 123.67 17.25C124.357 17.5 125.045 17.625 125.732 17.625C127.92 17.625 129.451 16.625 130.326 14.625C130.639 13.9375 130.795 13.2188 130.795 12.4688Z" fill="#FEECAC"/>
<path d="M158.943 28.5V26.1563L140.755 26.1563V28.5H144.974L156.411 59.9063C157.661 63.4063 159.036 65.4375 160.536 66C161.286 66.3125 162.224 66.4688 163.349 66.4688H164.568L177.786 31.7813C178.536 29.8438 179.443 28.7813 180.505 28.5938C180.818 28.5313 181.099 28.5 181.349 28.5C182.724 28.5 183.474 28.0313 183.599 27.0938C183.661 26.7813 183.693 26.4688 183.693 26.1563L169.255 26.1563V28.5L176.286 28.5L164.38 60.4688L152.38 28.5H158.943Z" fill="#FEECAC"/>
<path d="M208.277 27.5625C212.652 27.5625 215.559 29.4063 216.996 33.0938C217.496 34.2813 217.746 35.5625 217.746 36.9375C217.746 40.0625 216.246 41.9688 213.246 42.6563C211.684 42.9688 209.465 43.0938 206.59 43.0313L196.652 42.75C196.965 35.5625 199.309 30.875 203.684 28.6875C205.121 27.9375 206.652 27.5625 208.277 27.5625ZM224.59 57L222.246 56.1563C220.059 60.9063 216.527 63.5938 211.652 64.2188C211.027 64.2813 210.434 64.3125 209.871 64.3125C203.309 64.3125 199.184 60.4063 197.496 52.5938C196.996 50.4063 196.715 48 196.652 45.375L207.902 45.5625C215.527 45.6875 220.434 44.9688 222.621 43.4063C224.309 42.1563 225.152 40.375 225.152 38.0625C225.152 33.8125 222.996 30.4375 218.684 27.9375C215.621 26.125 212.09 25.2188 208.09 25.2188C200.277 25.2188 194.684 28.4688 191.309 34.9688C189.559 38.3438 188.684 42.1563 188.684 46.4063C188.684 54.1563 191.465 59.9063 197.027 63.6563C200.34 65.8438 204.121 66.9375 208.371 66.9375C215.121 66.9375 220.09 64.5 223.277 59.625C223.777 58.75 224.215 57.875 224.59 57Z" fill="#FEECAC"/>
<path d="M253.206 63.6563L246.456 63.6563V45C246.456 39.3125 248.206 34.75 251.706 31.3125C253.081 30 254.238 29.3125 255.175 29.25C256.238 29.25 257.206 30.0313 258.081 31.5938C259.081 33.3438 260.019 34.3438 260.894 34.5938C261.269 34.7188 261.644 34.7813 262.019 34.7813C263.894 34.7813 265.081 33.875 265.581 32.0625C265.706 31.6875 265.769 31.3125 265.769 30.9375C265.769 28.125 264.331 26.4063 261.456 25.7813C260.831 25.6563 260.238 25.5938 259.675 25.5938C255.925 25.5938 252.581 27.1875 249.644 30.375C248.269 31.875 247.175 33.5625 246.363 35.4375L245.988 26.1563L232.394 26.1563V28.5L239.425 28.5V58.0313C239.425 60.9063 238.613 62.625 236.988 63.1875C236.05 63.5 234.519 63.6563 232.394 63.6563V66L255.55 66C255.55 64.625 255.081 63.875 254.144 63.75C253.894 63.6875 253.581 63.6563 253.206 63.6563Z" fill="#FEECAC"/>
<path d="M285.01 64.4063C289.323 64.4063 292.229 63.0938 293.729 60.4688C294.291 59.5313 294.573 58.5 294.573 57.375C294.573 54.75 292.666 52.5 288.854 50.625C288.041 50.1875 286.698 49.5625 284.823 48.75C279.698 46.625 276.291 44.625 274.604 42.75C272.791 40.6875 271.885 38.2813 271.885 35.5313C271.885 31.2188 274.26 28.1875 279.01 26.4375C281.198 25.625 283.573 25.2188 286.135 25.2188C290.26 25.2188 293.823 26.0938 296.823 27.8438C296.823 26.0313 297.26 25 298.135 24.75C298.51 24.6875 298.916 24.6563 299.354 24.6563V36.375H296.916C296.791 30.625 293.604 27.7188 287.354 27.6563C282.666 27.6563 279.76 29.0313 278.635 31.7813C278.323 32.5313 278.166 33.3125 278.166 34.125C278.166 36.8125 280.104 39.0938 283.979 40.9688C284.854 41.4063 286.229 42 288.104 42.75C293.166 44.8125 296.541 46.7813 298.229 48.6563C300.041 50.6563 300.948 53.0313 300.948 55.7813C300.948 60.8438 298.26 64.2188 292.885 65.9063C290.823 66.5938 288.573 66.9375 286.135 66.9375C281.635 66.875 277.729 65.75 274.416 63.5625C274.416 65.1875 274.01 66.125 273.198 66.375C272.823 66.4375 272.385 66.4688 271.885 66.4688V52.2188H274.51C274.635 60.2813 278.135 64.3438 285.01 64.4063Z" fill="#FEECAC"/>
<path d="M327.689 63.6563H323.001V26.1563H308.47V28.5H315.97V58.0313C315.97 60.9063 315.001 62.6563 313.064 63.2813C312.126 63.5313 310.595 63.6563 308.47 63.6563V66H330.033C330.033 64.625 329.564 63.875 328.626 63.75C328.314 63.6875 328.001 63.6563 327.689 63.6563ZM324.126 12.4688C324.126 10.2813 323.158 8.71875 321.22 7.78125C320.47 7.46875 319.751 7.3125 319.064 7.3125C316.876 7.3125 315.314 8.3125 314.376 10.3125C314.064 11 313.908 11.7188 313.908 12.4688C313.908 14.7813 314.939 16.375 317.001 17.25C317.689 17.5 318.376 17.625 319.064 17.625C321.251 17.625 322.783 16.625 323.658 14.625C323.97 13.9375 324.126 13.2188 324.126 12.4688Z" fill="#FEECAC"/>
<path d="M335.68 28.5H342.242V54.9375C342.68 62.75 346.274 66.7813 353.024 67.0313C358.774 67.0313 362.367 63.5 363.805 56.4375C363.805 56.375 363.805 56.3125 363.805 56.25L361.274 55.7813C359.711 60.9688 357.43 63.7813 354.43 64.2188C351.055 64.0938 349.336 61.6875 349.274 57V28.5H363.805V26.1563H349.274V15.2813L342.242 17.25V26.1563H335.68V28.5Z" fill="#FEECAC"/>
<path d="M374.89 80.9063C373.89 80.9063 373.14 80.1563 372.64 78.6563C371.953 76.7813 371.296 75.625 370.671 75.1875C370.109 74.8125 369.453 74.625 368.703 74.625C366.703 74.625 365.546 75.5 365.234 77.25C365.171 77.5 365.14 77.7188 365.14 77.9063C365.14 80.2813 366.515 82 369.265 83.0625C370.515 83.5625 371.828 83.8125 373.203 83.8125C378.14 83.8125 382.421 80.7813 386.046 74.7188C387.546 72.2813 388.984 69.375 390.359 66L404.234 31.7813C404.859 30.0313 405.546 29.0313 406.296 28.7813C406.734 28.6563 407.234 28.5938 407.796 28.5938C409.046 28.5938 409.765 28.25 409.953 27.5625C410.078 27.1875 410.14 26.7188 410.14 26.1563H395.89V28.5938H402.734L390.734 58.5938L377.89 28.5938H384.171V26.1563L365.89 26.1563V28.5938L370.484 28.5938L387.359 66C383.859 74.25 380.578 79.0313 377.515 80.3438C376.64 80.7188 375.765 80.9063 374.89 80.9063Z" fill="#FEECAC"/>
<path d="M452.815 28.5V26.1563L434.253 26.1563V28.5L438.471 28.5L450.19 59.9063C451.503 63.4688 452.846 65.5313 454.221 66.0938C454.909 66.3438 455.753 66.4688 456.753 66.4688H458.628L466.784 41.9063L473.065 59.9063C474.253 63.4063 475.471 65.4688 476.721 66.0938C477.346 66.3438 478.19 66.4688 479.253 66.4688H480.753L492.096 31.875C492.721 29.9375 493.471 28.8438 494.346 28.5938C494.659 28.5313 495.003 28.5 495.378 28.5C496.753 28.5 497.534 28.0625 497.721 27.1875C497.784 26.875 497.815 26.5313 497.815 26.1563H483.94V28.5H490.503L480.096 60.8438L469.128 28.5H475.69V26.1563H461.253L465.471 38.0625L457.69 61.125L445.784 28.5H452.815Z" fill="#FEECAC"/>
<path d="M510.494 46.0313C510.494 36.3438 513.15 30.4375 518.463 28.3125C519.838 27.8125 521.275 27.5625 522.775 27.5625C529.713 27.5625 533.744 31.9375 534.869 40.6875C535.056 42.1875 535.15 43.8438 535.15 45.6563C535.15 56.1563 532.275 62.3125 526.525 64.125C525.4 64.4375 524.244 64.5938 523.056 64.5938C516.744 64.5938 512.775 60.8438 511.15 53.3438C510.712 51.1563 510.494 48.7188 510.494 46.0313ZM523.056 25.2188C517.056 25.2188 512.056 27.2813 508.056 31.4063C504.369 35.2188 502.525 39.9688 502.525 45.6563C502.525 53.5313 505.4 59.4375 511.15 63.375C514.65 65.75 518.525 66.9375 522.775 66.9375C528.775 66.9375 533.744 64.8125 537.681 60.5625C541.306 56.6875 543.119 51.8438 543.119 46.0313C543.119 38.1563 540.213 32.3125 534.4 28.5C530.963 26.3125 527.181 25.2188 523.056 25.2188Z" fill="#FEECAC"/>
<path d="M571.641 63.6563H564.891V45C564.891 39.3125 566.641 34.75 570.141 31.3125C571.516 30 572.672 29.3125 573.61 29.25C574.672 29.25 575.641 30.0313 576.516 31.5938C577.516 33.3438 578.454 34.3438 579.329 34.5938C579.704 34.7188 580.079 34.7813 580.454 34.7813C582.329 34.7813 583.516 33.875 584.016 32.0625C584.141 31.6875 584.204 31.3125 584.204 30.9375C584.204 28.125 582.766 26.4063 579.891 25.7813C579.266 25.6563 578.672 25.5938 578.11 25.5938C574.36 25.5938 571.016 27.1875 568.079 30.375C566.704 31.875 565.61 33.5625 564.797 35.4375L564.422 26.1563H550.829V28.5H557.86V58.0313C557.86 60.9063 557.047 62.625 555.422 63.1875C554.485 63.5 552.954 63.6563 550.829 63.6563V66H573.985C573.985 64.625 573.516 63.875 572.579 63.75C572.329 63.6875 572.016 63.6563 571.641 63.6563Z" fill="#FEECAC"/>
<path d="M606.82 63.6563H602.601V49.7813L607.758 45L620.976 66H633.445C633.445 64.625 632.976 63.875 632.039 63.75C631.789 63.6875 631.476 63.6563 631.101 63.6563H627.726L612.633 40.4063L621.445 32.1563C623.633 30.0938 625.289 28.9375 626.414 28.6875C626.914 28.5625 627.476 28.5 628.101 28.5C629.476 28.5 630.226 28.0313 630.351 27.0938C630.414 26.7813 630.445 26.4688 630.445 26.1563H614.508V28.5H621.539L602.601 46.0313V5.0625L588.539 5.0625V7.40625L595.57 7.40625V58.0313C595.57 60.9063 594.758 62.625 593.133 63.1875C592.195 63.5 590.664 63.6563 588.539 63.6563V66L609.164 66C609.164 64.625 608.695 63.875 607.758 63.75C607.508 63.6875 607.195 63.6563 606.82 63.6563Z" fill="#FEECAC"/>
<path d="M651.28 64.4063C655.593 64.4063 658.499 63.0938 659.999 60.4688C660.561 59.5313 660.843 58.5 660.843 57.375C660.843 54.75 658.936 52.5 655.124 50.625C654.311 50.1875 652.968 49.5625 651.093 48.75C645.968 46.625 642.561 44.625 640.874 42.75C639.061 40.6875 638.155 38.2813 638.155 35.5313C638.155 31.2188 640.53 28.1875 645.28 26.4375C647.468 25.625 649.843 25.2188 652.405 25.2188C656.53 25.2188 660.093 26.0938 663.093 27.8438C663.093 26.0313 663.53 25 664.405 24.75C664.78 24.6875 665.186 24.6563 665.624 24.6563V36.375H663.186C663.061 30.625 659.874 27.7188 653.624 27.6563C648.936 27.6563 646.03 29.0313 644.905 31.7813C644.593 32.5313 644.436 33.3125 644.436 34.125C644.436 36.8125 646.374 39.0938 650.249 40.9688C651.124 41.4063 652.499 42 654.374 42.75C659.436 44.8125 662.811 46.7813 664.499 48.6563C666.311 50.6563 667.218 53.0313 667.218 55.7813C667.218 60.8438 664.53 64.2188 659.155 65.9063C657.093 66.5938 654.843 66.9375 652.405 66.9375C647.905 66.875 643.999 65.75 640.686 63.5625C640.686 65.1875 640.28 66.125 639.468 66.375C639.093 66.4375 638.655 66.4688 638.155 66.4688V52.2188H640.78C640.905 60.2813 644.405 64.3438 651.28 64.4063Z" fill="#FEECAC"/>
</g>
<defs>
<filter id="filter0_f" x="0.875" y="0.0625" width="671.343" height="88.75" filterUnits="userSpaceOnUse" color-interpolation-filters="sRGB">
<feFlood flood-opacity="0" result="BackgroundImageFix"/>
<feBlend mode="normal" in="SourceGraphic" in2="BackgroundImageFix" result="shape"/>
<feGaussianBlur stdDeviation="2.5" result="effect1_foregroundBlur"/>
</filter>
</defs>
</svg>
