<svg width="481" height="174" viewBox="0 0 481 174" fill="none" xmlns="http://www.w3.org/2000/svg">
<path d="M59.2812 59V60H60.2812V59H59.2812ZM57.7812 56.6562L57.5851 57.6369L57.597 57.6391L57.7812 56.6562ZM53.6562 56.5625L52.7274 56.9331L52.9786 57.5625H53.6562V56.5625ZM32.1875 2.75L33.1163 2.37945L32.8652 1.75H32.1875V2.75ZM28.7188 2.75V1.75H28.0355L27.7872 2.38646L28.7188 2.75ZM7.71875 56.5625V57.5625H8.40195L8.65033 56.926L7.71875 56.5625ZM1.8125 56.5625V55.5625H0.8125V56.5625H1.8125ZM1.8125 59H0.8125V60H1.8125V59ZM18.5 59V60H19.5V59H18.5ZM17 56.6562L16.8039 57.6369L16.8157 57.6391L17 56.6562ZM11.4688 56.5625L10.536 56.2019L10.01 57.5625H11.4688V56.5625ZM18.5 38.375V37.375H17.8145L17.5673 38.0144L18.5 38.375ZM38.0938 38.375L39.0265 38.0144L38.7793 37.375H38.0938V38.375ZM45.125 56.5625V57.5625H46.5837L46.0577 56.2019L45.125 56.5625ZM39.0312 56.5625V55.5625H38.0312V56.5625H39.0312ZM39.0312 59H38.0312V60H39.0312V59ZM37.0625 35.6562V36.6562H38.5237L37.9946 35.2942L37.0625 35.6562ZM19.5312 35.6562L18.5978 35.2975L18.0757 36.6562H19.5312V35.6562ZM28.25 12.9688L29.1821 12.6067L28.245 10.194L27.3166 12.61L28.25 12.9688ZM60.2812 59C60.2812 58.208 60.1399 57.4553 59.7485 56.8438C59.3345 56.1969 58.7075 55.8125 57.9655 55.6734L57.597 57.6391C57.855 57.6875 57.978 57.7875 58.064 57.9219C58.1726 58.0916 58.2812 58.417 58.2812 59H60.2812ZM57.9774 55.6757C57.6016 55.6005 57.2234 55.5625 56.8438 55.5625V57.5625C57.0891 57.5625 57.3359 57.587 57.5851 57.6368L57.9774 55.6757ZM56.8438 55.5625H53.6562V57.5625H56.8438V55.5625ZM54.5851 56.1919L33.1163 2.37945L31.2587 3.12055L52.7274 56.9331L54.5851 56.1919ZM32.1875 1.75H28.7188V3.75H32.1875V1.75ZM27.7872 2.38646L6.78717 56.199L8.65033 56.926L29.6503 3.11354L27.7872 2.38646ZM7.71875 55.5625H1.8125V57.5625H7.71875V55.5625ZM0.8125 56.5625V59H2.8125V56.5625H0.8125ZM1.8125 60H18.5V58H1.8125V60ZM19.5 59C19.5 58.208 19.3587 57.4553 18.9673 56.8438C18.5533 56.1969 17.9263 55.8125 17.1843 55.6734L16.8157 57.6391C17.0737 57.6875 17.1967 57.7875 17.2827 57.9219C17.3913 58.0916 17.5 58.417 17.5 59H19.5ZM17.1961 55.6757C16.8203 55.6005 16.4421 55.5625 16.0625 55.5625V57.5625C16.3079 57.5625 16.5547 57.587 16.8039 57.6368L17.1961 55.6757ZM16.0625 55.5625H11.4688V57.5625H16.0625V55.5625ZM12.4015 56.9231L19.4327 38.7356L17.5673 38.0144L10.536 56.2019L12.4015 56.9231ZM18.5 39.375H38.0938V37.375H18.5V39.375ZM37.161 38.7356L44.1923 56.9231L46.0577 56.2019L39.0265 38.0144L37.161 38.7356ZM45.125 55.5625H39.0312V57.5625H45.125V55.5625ZM38.0312 56.5625V59H40.0312V56.5625H38.0312ZM39.0312 60H59.2812V58H39.0312V60ZM37.0625 34.6562H19.5312V36.6562H37.0625V34.6562ZM20.4647 36.015L29.1834 13.3275L27.3166 12.61L18.5978 35.2975L20.4647 36.015ZM27.3179 13.3308L36.1304 36.0183L37.9946 35.2942L29.1821 12.6067L27.3179 13.3308ZM101.844 5.1875H100.844V6.1875H101.844V5.1875ZM109.812 5.1875H110.812V4.1875H109.812V5.1875ZM109.812 47.1875L109.032 47.813L110.812 50.0336V47.1875H109.812ZM74.1875 2.75L74.9677 2.1245L74.6675 1.75H74.1875V2.75ZM61.1562 2.75V1.75H60.1562V2.75H61.1562ZM61.1562 5.1875H60.1562V6.1875H61.1562V5.1875ZM68.6562 5.1875H69.6562V4.1875H68.6562V5.1875ZM68.6562 56.5625V57.5625H69.6562V56.5625H68.6562ZM61.1562 56.5625V55.5625H60.1562V56.5625H61.1562ZM61.1562 59H60.1562V60H61.1562V59ZM80.375 59V60H81.375V59H80.375ZM78.875 56.6562L78.6789 57.6369L78.6907 57.6391L78.875 56.6562ZM72.4062 56.5625H71.4062V57.5625H72.4062V56.5625ZM72.4062 13.1562L73.1888 12.5337L71.4062 10.293V13.1562H72.4062ZM109.25 59.4688L108.467 60.0913L108.855 60.5781L109.462 60.4459L109.25 59.4688ZM113.562 58.5312L113.775 59.5084L114.562 59.3372V58.5312H113.562ZM113.562 5.1875V4.1875H112.562V5.1875H113.562ZM121.062 5.1875V6.1875H122.062V5.1875H121.062ZM121.062 2.75H122.062V1.75H121.062V2.75ZM101.844 2.75V1.75H100.844V2.75H101.844ZM101.844 6.1875H109.812V4.1875H101.844V6.1875ZM108.812 5.1875V47.1875H110.812V5.1875H108.812ZM110.593 46.562L74.9677 2.1245L73.4073 3.3755L109.032 47.813L110.593 46.562ZM74.1875 1.75H61.1562V3.75H74.1875V1.75ZM60.1562 2.75V5.1875H62.1562V2.75H60.1562ZM61.1562 6.1875H68.6562V4.1875H61.1562V6.1875ZM67.6562 5.1875V56.5625H69.6562V5.1875H67.6562ZM68.6562 55.5625H61.1562V57.5625H68.6562V55.5625ZM60.1562 56.5625V59H62.1562V56.5625H60.1562ZM61.1562 60H80.375V58H61.1562V60ZM81.375 59C81.375 58.208 81.2337 57.4553 80.8423 56.8438C80.4283 56.1969 79.8013 55.8125 79.0593 55.6734L78.6907 57.6391C78.9487 57.6875 79.0717 57.7875 79.1577 57.9219C79.2663 58.0916 79.375 58.417 79.375 59H81.375ZM79.0711 55.6757C78.6953 55.6005 78.3171 55.5625 77.9375 55.5625V57.5625C78.1829 57.5625 78.4297 57.587 78.6789 57.6368L79.0711 55.6757ZM77.9375 55.5625H72.4062V57.5625H77.9375V55.5625ZM73.4062 56.5625V13.1562H71.4062V56.5625H73.4062ZM71.6237 13.7788L108.467 60.0913L110.033 58.8462L73.1888 12.5337L71.6237 13.7788ZM109.462 60.4459L113.775 59.5084L113.35 57.5541L109.038 58.4916L109.462 60.4459ZM114.562 58.5312V5.1875H112.562V58.5312H114.562ZM113.562 6.1875H121.062V4.1875H113.562V6.1875ZM122.062 5.1875V2.75H120.062V5.1875H122.062ZM121.062 1.75H101.844V3.75H121.062V1.75ZM100.844 2.75V5.1875H102.844V2.75H100.844ZM179.469 59V60H180.469V59H179.469ZM177.969 56.6562L177.773 57.6369L177.784 57.6391L177.969 56.6562ZM173.844 56.5625L172.915 56.9331L173.166 57.5625H173.844V56.5625ZM152.375 2.75L153.304 2.37945L153.053 1.75H152.375V2.75ZM148.906 2.75V1.75H148.223L147.975 2.38646L148.906 2.75ZM127.906 56.5625V57.5625H128.589L128.838 56.926L127.906 56.5625ZM122 56.5625V55.5625H121V56.5625H122ZM122 59H121V60H122V59ZM138.688 59V60H139.688V59H138.688ZM137.188 56.6562L136.991 57.6369L137.003 57.6391L137.188 56.6562ZM131.656 56.5625L130.724 56.2019L130.198 57.5625H131.656V56.5625ZM138.688 38.375V37.375H138.002L137.755 38.0144L138.688 38.375ZM158.281 38.375L159.214 38.0144L158.967 37.375H158.281V38.375ZM165.312 56.5625V57.5625H166.771L166.245 56.2019L165.312 56.5625ZM159.219 56.5625V55.5625H158.219V56.5625H159.219ZM159.219 59H158.219V60H159.219V59ZM157.25 35.6562V36.6562H158.711L158.182 35.2942L157.25 35.6562ZM139.719 35.6562L138.785 35.2975L138.263 36.6562H139.719V35.6562ZM148.438 12.9688L149.37 12.6067L148.433 10.194L147.504 12.61L148.438 12.9688ZM180.469 59C180.469 58.208 180.327 57.4553 179.936 56.8438C179.522 56.1969 178.895 55.8125 178.153 55.6734L177.784 57.6391C178.042 57.6875 178.165 57.7875 178.251 57.9219C178.36 58.0916 178.469 58.417 178.469 59H180.469ZM178.165 55.6757C177.789 55.6005 177.411 55.5625 177.031 55.5625V57.5625C177.277 57.5625 177.523 57.587 177.773 57.6368L178.165 55.6757ZM177.031 55.5625H173.844V57.5625H177.031V55.5625ZM174.773 56.1919L153.304 2.37945L151.446 3.12055L172.915 56.9331L174.773 56.1919ZM152.375 1.75H148.906V3.75H152.375V1.75ZM147.975 2.38646L126.975 56.199L128.838 56.926L149.838 3.11354L147.975 2.38646ZM127.906 55.5625H122V57.5625H127.906V55.5625ZM121 56.5625V59H123V56.5625H121ZM122 60H138.688V58H122V60ZM139.688 59C139.688 58.208 139.546 57.4553 139.155 56.8438C138.741 56.1969 138.114 55.8125 137.372 55.6734L137.003 57.6391C137.261 57.6875 137.384 57.7875 137.47 57.9219C137.579 58.0916 137.688 58.417 137.688 59H139.688ZM137.384 55.6757C137.008 55.6005 136.63 55.5625 136.25 55.5625V57.5625C136.495 57.5625 136.742 57.587 136.991 57.6368L137.384 55.6757ZM136.25 55.5625H131.656V57.5625H136.25V55.5625ZM132.589 56.9231L139.62 38.7356L137.755 38.0144L130.724 56.2019L132.589 56.9231ZM138.688 39.375H158.281V37.375H138.688V39.375ZM157.349 38.7356L164.38 56.9231L166.245 56.2019L159.214 38.0144L157.349 38.7356ZM165.312 55.5625H159.219V57.5625H165.312V55.5625ZM158.219 56.5625V59H160.219V56.5625H158.219ZM159.219 60H179.469V58H159.219V60ZM157.25 34.6562H139.719V36.6562H157.25V34.6562ZM140.652 36.015L149.371 13.3275L147.504 12.61L138.785 35.2975L140.652 36.015ZM147.505 13.3308L156.318 36.0183L158.182 35.2942L149.37 12.6067L147.505 13.3308ZM216.031 30.875L216.522 30.0034L216.509 29.9966L216.497 29.9901L216.031 30.875ZM205.062 25.9062L205.464 24.9905L205.455 24.9866L205.062 25.9062ZM194.562 18.5938L193.685 19.0726L193.69 19.0825L193.696 19.0922L194.562 18.5938ZM199.531 5.46875L199.166 4.53798L199.16 4.54027L199.531 5.46875ZM217.344 9.78125L218.146 9.18455L218.141 9.17732L218.135 9.1702L217.344 9.78125ZM219.969 18.6875L218.969 18.6696L218.951 19.6875H219.969V18.6875ZM222.781 18.6875V19.6875H223.781V18.6875H222.781ZM222.781 2.28125H223.781V1.28125H222.781V2.28125ZM220.156 3.6875L221.118 3.96222L221.12 3.95371L221.122 3.94516L220.156 3.6875ZM219.969 5.46875L219.487 6.34523L220.969 7.15898V5.46875H219.969ZM189.219 7.4375L188.512 6.73039L188.503 6.73902L188.495 6.74784L189.219 7.4375ZM194.281 29.4688L193.79 30.3398L193.802 30.3463L193.813 30.3525L194.281 29.4688ZM204.969 34.25L205.375 33.3361L205.366 33.3323L204.969 34.25ZM215.656 41.8438L216.527 41.3517L216.523 41.3451L216.519 41.3386L215.656 41.8438ZM210.5 56L210.901 56.9162L210.908 56.9131L210.915 56.9099L210.5 56ZM203.844 57.3125L203.831 58.3125H203.844V57.3125ZM187.906 39.7812L188.902 39.6897L188.819 38.7812H187.906V39.7812ZM185.094 39.7812V38.7812H184.094V39.7812H185.094ZM185.094 59.1875H184.094V60.1875H185.094V59.1875ZM187.719 57.875L188.68 58.1497L188.685 58.1337L188.689 58.1175L187.719 57.875ZM187.906 55.1562L188.458 54.3225L186.906 53.2945V55.1562H187.906ZM221 54.125L221.701 54.8377L221.708 54.8309L221.715 54.8239L221 54.125ZM226.031 44.2812C226.031 38.2668 222.749 33.5061 216.522 30.0034L215.541 31.7466C221.314 34.9939 224.031 39.1707 224.031 44.2812H226.031ZM216.497 29.9901C215.27 29.3443 211.572 27.6706 205.464 24.9905L204.661 26.822C210.803 29.5169 214.418 31.1557 215.566 31.7599L216.497 29.9901ZM205.455 24.9866C199.913 22.6204 196.691 20.2891 195.429 18.0953L193.696 19.0922C195.309 21.8984 199.087 24.4421 204.67 26.8259L205.455 24.9866ZM195.44 18.1149C194.77 16.8864 194.438 15.5823 194.438 14.1875H192.438C192.438 15.9177 192.855 17.5511 193.685 19.0726L195.44 18.1149ZM194.438 14.1875C194.438 12.2607 194.902 10.6965 195.781 9.44006C196.661 8.18038 198.01 7.15438 199.903 6.39723L199.16 4.54027C196.99 5.40812 195.292 6.64774 194.141 8.29432C192.988 9.94409 192.438 11.9268 192.438 14.1875H194.438ZM199.897 6.3995C201.516 5.76333 203.328 5.4375 205.344 5.4375V3.4375C203.11 3.4375 201.046 3.79917 199.166 4.538L199.897 6.3995ZM205.344 5.4375C210.342 5.4375 214.024 7.11778 216.552 10.3923L218.135 9.1702C215.163 5.31972 210.845 3.4375 205.344 3.4375V5.4375ZM216.541 10.378C218.202 12.6117 219.028 15.3555 218.969 18.6696L220.969 18.7054C221.034 15.0195 220.11 11.8258 218.146 9.18455L216.541 10.378ZM219.969 19.6875H222.781V17.6875H219.969V19.6875ZM223.781 18.6875V2.28125H221.781V18.6875H223.781ZM222.781 1.28125C221.944 1.28125 221.166 1.4094 220.528 1.75133C219.853 2.11294 219.388 2.68686 219.19 3.42984L221.122 3.94516C221.174 3.75064 221.272 3.62143 221.472 3.51429C221.709 3.38747 222.119 3.28125 222.781 3.28125V1.28125ZM219.195 3.41278C219.033 3.97855 218.969 4.67761 218.969 5.46875H220.969C220.969 4.75989 221.029 4.27145 221.118 3.96222L219.195 3.41278ZM220.45 4.59227C215.851 2.06593 210.683 0.8125 204.969 0.8125V2.8125C210.38 2.8125 215.212 3.99657 219.487 6.34523L220.45 4.59227ZM204.969 0.8125C198.029 0.8125 192.497 2.74522 188.512 6.73039L189.926 8.14461C193.441 4.62978 198.408 2.8125 204.969 2.8125V0.8125ZM188.495 6.74784C185.825 9.55143 184.469 12.8582 184.469 16.625H186.469C186.469 13.3918 187.613 10.5736 189.943 8.12716L188.495 6.74784ZM184.469 16.625C184.469 22.341 187.704 26.9086 193.79 30.3398L194.772 28.5977C189.108 25.4039 186.469 21.409 186.469 16.625H184.469ZM193.813 30.3525C194.92 30.9383 198.53 32.5516 204.571 35.1677L205.366 33.3323C199.283 30.6984 195.768 29.1242 194.749 28.585L193.813 30.3525ZM204.563 35.1638C210.164 37.6534 213.464 40.0787 214.793 42.3489L216.519 41.3386C214.848 38.4838 211.023 35.8466 205.375 33.3362L204.563 35.1638ZM214.786 42.3358C215.511 43.6198 215.875 45.0122 215.875 46.5312H217.875C217.875 44.6753 217.426 42.9427 216.527 41.3517L214.786 42.3358ZM215.875 46.5312C215.875 48.5505 215.387 50.2319 214.452 51.6212C213.514 53.0147 212.08 54.1805 210.085 55.0901L210.915 56.9099C213.17 55.882 214.924 54.5009 216.111 52.7382C217.3 50.9713 217.875 48.887 217.875 46.5312H215.875ZM210.099 55.0838C208.24 55.8974 206.159 56.3125 203.844 56.3125V58.3125C206.403 58.3125 208.76 57.8526 210.901 56.9162L210.099 55.0838ZM203.857 56.3126C199.29 56.2529 195.859 54.8376 193.427 52.1633C190.972 49.4621 189.422 45.3521 188.902 39.6897L186.91 39.8728C187.453 45.7729 189.091 50.3661 191.948 53.5086C194.829 56.678 198.835 58.2471 203.831 58.3124L203.857 56.3126ZM187.906 38.7812H185.094V40.7812H187.906V38.7812ZM184.094 39.7812V59.1875H186.094V39.7812H184.094ZM185.094 60.1875C185.924 60.1875 186.691 60.0692 187.322 59.7538C187.989 59.4202 188.472 58.8786 188.68 58.1497L186.757 57.6003C186.715 57.7464 186.636 57.861 186.428 57.9649C186.184 58.0871 185.764 58.1875 185.094 58.1875V60.1875ZM188.689 58.1175C188.847 57.4836 188.906 56.4628 188.906 55.1562H186.906C186.906 56.4747 186.84 57.2664 186.749 57.6325L188.689 58.1175ZM187.354 55.99C192.341 59.2927 198.004 60.9375 204.312 60.9375V58.9375C198.371 58.9375 193.097 57.3948 188.458 54.3225L187.354 55.99ZM204.312 60.9375C211.68 60.9375 217.526 58.9474 221.701 54.8377L220.299 53.4123C216.599 57.0526 211.32 58.9375 204.312 58.9375V60.9375ZM221.715 54.8239C224.584 51.8889 226.031 48.3575 226.031 44.2812H224.031C224.031 47.83 222.791 50.8611 220.285 53.4261L221.715 54.8239ZM269.281 59V60H270.281V59H269.281ZM267.781 56.6562L267.585 57.6369L267.597 57.6391L267.781 56.6562ZM260.469 56.5625H259.469V57.5625H260.469V56.5625ZM260.469 5.1875V4.1875H259.469V5.1875H260.469ZM276.031 14.375H277.031V14.2398L276.995 14.1094L276.031 14.375ZM276.125 14.9375L277.098 14.7052L277.071 14.5933L277.019 14.4903L276.125 14.9375ZM277.625 21.2188L276.652 21.451L276.836 22.2188H277.625V21.2188ZM280.25 21.2188V22.2188H281.276L281.25 21.1934L280.25 21.2188ZM279.781 2.75L280.781 2.72463L280.756 1.75H279.781V2.75ZM233.469 2.75V1.75H232.494L232.469 2.72463L233.469 2.75ZM233 21.2188L232 21.1934L231.974 22.2188H233V21.2188ZM235.625 21.2188V22.2188H236.414L236.598 21.451L235.625 21.2188ZM237.125 14.9375L236.174 14.6271L236.162 14.6657L236.152 14.7052L237.125 14.9375ZM247.344 5.1875V4.1875H247.305L247.266 4.19052L247.344 5.1875ZM252.406 5.1875H253.406V4.1875H252.406V5.1875ZM252.406 56.5625V57.5625H253.406V56.5625H252.406ZM243.5 56.5625V55.5625H242.5V56.5625H243.5ZM243.5 59H242.5V60H243.5V59ZM270.281 59C270.281 58.208 270.14 57.4553 269.749 56.8438C269.335 56.1969 268.708 55.8125 267.966 55.6734L267.597 57.6391C267.855 57.6875 267.978 57.7875 268.064 57.9219C268.173 58.0916 268.281 58.417 268.281 59H270.281ZM267.977 55.6757C267.602 55.6005 267.223 55.5625 266.844 55.5625V57.5625C267.089 57.5625 267.336 57.587 267.585 57.6368L267.977 55.6757ZM266.844 55.5625H260.469V57.5625H266.844V55.5625ZM261.469 56.5625V5.1875H259.469V56.5625H261.469ZM260.469 6.1875H265.906V4.1875H260.469V6.1875ZM265.906 6.1875C268.219 6.1875 270.08 6.8796 271.562 8.22494C273.064 9.5879 274.255 11.6918 275.067 14.6406L276.995 14.1094C276.12 10.9332 274.779 8.44335 272.906 6.74381C271.014 5.02665 268.656 4.1875 265.906 4.1875V6.1875ZM275.031 14.375C275.031 14.6761 275.064 15.0508 275.231 15.3847L277.019 14.4903C277.033 14.5181 277.04 14.5376 277.042 14.5447C277.044 14.5519 277.043 14.5507 277.041 14.5387C277.037 14.5132 277.031 14.461 277.031 14.375H275.031ZM275.152 15.1698L276.652 21.451L278.598 20.9865L277.098 14.7052L275.152 15.1698ZM277.625 22.2188H280.25V20.2188H277.625V22.2188ZM281.25 21.1934L280.781 2.72463L278.782 2.77537L279.25 21.2441L281.25 21.1934ZM279.781 1.75H233.469V3.75H279.781V1.75ZM232.469 2.72463L232 21.1934L234 21.2441L234.468 2.77537L232.469 2.72463ZM233 22.2188H235.625V20.2188H233V22.2188ZM236.598 21.451L238.098 15.1698L236.152 14.7052L234.652 20.9865L236.598 21.451ZM238.076 15.2479C239.042 12.2874 240.322 10.1064 241.87 8.62976C243.402 7.16806 245.238 6.35458 247.421 6.18448L247.266 4.19052C244.637 4.39542 242.364 5.39444 240.489 7.18274C238.631 8.95609 237.208 11.4626 236.174 14.6271L238.076 15.2479ZM247.344 6.1875H252.406V4.1875H247.344V6.1875ZM251.406 5.1875V56.5625H253.406V5.1875H251.406ZM252.406 55.5625H243.5V57.5625H252.406V55.5625ZM242.5 56.5625V59H244.5V56.5625H242.5ZM243.5 60H269.281V58H243.5V60ZM341 59V60H342V59H341ZM339.5 56.6562L339.304 57.6369L339.316 57.6391L339.5 56.6562ZM335.375 56.5625L334.446 56.9331L334.697 57.5625H335.375V56.5625ZM313.906 2.75L314.835 2.37945L314.584 1.75H313.906V2.75ZM310.438 2.75V1.75H309.754L309.506 2.38646L310.438 2.75ZM289.438 56.5625V57.5625H290.121L290.369 56.926L289.438 56.5625ZM283.531 56.5625V55.5625H282.531V56.5625H283.531ZM283.531 59H282.531V60H283.531V59ZM300.219 59V60H301.219V59H300.219ZM298.719 56.6562L298.523 57.6369L298.534 57.6391L298.719 56.6562ZM293.188 56.5625L292.255 56.2019L291.729 57.5625H293.188V56.5625ZM300.219 38.375V37.375H299.533L299.286 38.0144L300.219 38.375ZM319.812 38.375L320.745 38.0144L320.498 37.375H319.812V38.375ZM326.844 56.5625V57.5625H328.302L327.776 56.2019L326.844 56.5625ZM320.75 56.5625V55.5625H319.75V56.5625H320.75ZM320.75 59H319.75V60H320.75V59ZM318.781 35.6562V36.6562H320.242L319.713 35.2942L318.781 35.6562ZM301.25 35.6562L300.317 35.2975L299.794 36.6562H301.25V35.6562ZM309.969 12.9688L310.901 12.6067L309.964 10.194L309.035 12.61L309.969 12.9688ZM342 59C342 58.208 341.859 57.4553 341.467 56.8438C341.053 56.1969 340.426 55.8125 339.684 55.6734L339.316 57.6391C339.574 57.6875 339.697 57.7875 339.783 57.9219C339.891 58.0916 340 58.417 340 59H342ZM339.696 55.6757C339.32 55.6005 338.942 55.5625 338.562 55.5625V57.5625C338.808 57.5625 339.055 57.587 339.304 57.6368L339.696 55.6757ZM338.562 55.5625H335.375V57.5625H338.562V55.5625ZM336.304 56.1919L314.835 2.37945L312.977 3.12055L334.446 56.9331L336.304 56.1919ZM313.906 1.75H310.438V3.75H313.906V1.75ZM309.506 2.38646L288.506 56.199L290.369 56.926L311.369 3.11354L309.506 2.38646ZM289.438 55.5625H283.531V57.5625H289.438V55.5625ZM282.531 56.5625V59H284.531V56.5625H282.531ZM283.531 60H300.219V58H283.531V60ZM301.219 59C301.219 58.208 301.077 57.4553 300.686 56.8438C300.272 56.1969 299.645 55.8125 298.903 55.6734L298.534 57.6391C298.792 57.6875 298.915 57.7875 299.001 57.9219C299.11 58.0916 299.219 58.417 299.219 59H301.219ZM298.915 55.6757C298.539 55.6005 298.161 55.5625 297.781 55.5625V57.5625C298.027 57.5625 298.273 57.587 298.523 57.6368L298.915 55.6757ZM297.781 55.5625H293.188V57.5625H297.781V55.5625ZM294.12 56.9231L301.151 38.7356L299.286 38.0144L292.255 56.2019L294.12 56.9231ZM300.219 39.375H319.812V37.375H300.219V39.375ZM318.88 38.7356L325.911 56.9231L327.776 56.2019L320.745 38.0144L318.88 38.7356ZM326.844 55.5625H320.75V57.5625H326.844V55.5625ZM319.75 56.5625V59H321.75V56.5625H319.75ZM320.75 60H341V58H320.75V60ZM318.781 34.6562H301.25V36.6562H318.781V34.6562ZM302.183 36.015L310.902 13.3275L309.035 12.61L300.317 35.2975L302.183 36.015ZM309.037 13.3308L317.849 36.0183L319.713 35.2942L310.901 12.6067L309.037 13.3308ZM377.562 30.875L378.053 30.0034L378.041 29.9966L378.028 29.9901L377.562 30.875ZM366.594 25.9062L366.996 24.9905L366.986 24.9866L366.594 25.9062ZM356.094 18.5938L355.216 19.0726L355.221 19.0825L355.227 19.0922L356.094 18.5938ZM361.062 5.46875L360.697 4.53798L360.691 4.54027L361.062 5.46875ZM378.875 9.78125L379.677 9.18455L379.672 9.17732L379.667 9.1702L378.875 9.78125ZM381.5 18.6875L380.5 18.6696L380.482 19.6875H381.5V18.6875ZM384.312 18.6875V19.6875H385.312V18.6875H384.312ZM384.312 2.28125H385.312V1.28125H384.312V2.28125ZM381.688 3.6875L382.649 3.96222L382.651 3.95371L382.654 3.94516L381.688 3.6875ZM381.5 5.46875L381.019 6.34523L382.5 7.15898V5.46875H381.5ZM350.75 7.4375L350.043 6.73039L350.034 6.73902L350.026 6.74784L350.75 7.4375ZM355.812 29.4688L355.321 30.3398L355.333 30.3463L355.345 30.3525L355.812 29.4688ZM366.5 34.25L366.906 33.3361L366.897 33.3323L366.5 34.25ZM377.188 41.8438L378.058 41.3517L378.054 41.3451L378.051 41.3386L377.188 41.8438ZM372.031 56L372.432 56.9162L372.439 56.9131L372.446 56.9099L372.031 56ZM365.375 57.3125L365.362 58.3125H365.375V57.3125ZM349.438 39.7812L350.433 39.6897L350.35 38.7812H349.438V39.7812ZM346.625 39.7812V38.7812H345.625V39.7812H346.625ZM346.625 59.1875H345.625V60.1875H346.625V59.1875ZM349.25 57.875L350.212 58.1497L350.216 58.1337L350.22 58.1175L349.25 57.875ZM349.438 55.1562L349.99 54.3225L348.438 53.2945V55.1562H349.438ZM382.531 54.125L383.233 54.8377L383.24 54.8309L383.246 54.8239L382.531 54.125ZM387.562 44.2812C387.562 38.2668 384.28 33.5061 378.053 30.0034L377.072 31.7466C382.845 34.9939 385.562 39.1707 385.562 44.2812H387.562ZM378.028 29.9901C376.801 29.3443 373.104 27.6706 366.996 24.9905L366.192 26.822C372.334 29.5169 375.949 31.1557 377.097 31.7599L378.028 29.9901ZM366.986 24.9866C361.445 22.6204 358.222 20.2891 356.961 18.0953L355.227 19.0922C356.84 21.8984 360.618 24.4421 366.201 26.8259L366.986 24.9866ZM356.972 18.1149C356.302 16.8864 355.969 15.5823 355.969 14.1875H353.969C353.969 15.9177 354.386 17.5511 355.216 19.0726L356.972 18.1149ZM355.969 14.1875C355.969 12.2607 356.434 10.6965 357.312 9.44006C358.192 8.18038 359.541 7.15438 361.434 6.39723L360.691 4.54027C358.521 5.40812 356.823 6.64774 355.673 8.29432C354.519 9.94409 353.969 11.9268 353.969 14.1875H355.969ZM361.428 6.3995C363.048 5.76333 364.859 5.4375 366.875 5.4375V3.4375C364.641 3.4375 362.577 3.79917 360.697 4.538L361.428 6.3995ZM366.875 5.4375C371.873 5.4375 375.556 7.11778 378.083 10.3923L379.667 9.1702C376.694 5.31972 372.377 3.4375 366.875 3.4375V5.4375ZM378.073 10.378C379.734 12.6117 380.559 15.3555 380.5 18.6696L382.5 18.7054C382.566 15.0195 381.641 11.8258 379.677 9.18455L378.073 10.378ZM381.5 19.6875H384.312V17.6875H381.5V19.6875ZM385.312 18.6875V2.28125H383.312V18.6875H385.312ZM384.312 1.28125C383.475 1.28125 382.697 1.4094 382.059 1.75133C381.384 2.11294 380.919 2.68686 380.721 3.42984L382.654 3.94516C382.706 3.75064 382.803 3.62143 383.003 3.51429C383.24 3.38747 383.65 3.28125 384.312 3.28125V1.28125ZM380.726 3.41278C380.564 3.97855 380.5 4.67761 380.5 5.46875H382.5C382.5 4.75989 382.561 4.27145 382.649 3.96222L380.726 3.41278ZM381.981 4.59227C377.382 2.06593 372.214 0.8125 366.5 0.8125V2.8125C371.911 2.8125 376.743 3.99657 381.019 6.34523L381.981 4.59227ZM366.5 0.8125C359.561 0.8125 354.028 2.74522 350.043 6.73039L351.457 8.14461C354.972 4.62978 359.939 2.8125 366.5 2.8125V0.8125ZM350.026 6.74784C347.356 9.55143 346 12.8582 346 16.625H348C348 13.3918 349.144 10.5736 351.474 8.12716L350.026 6.74784ZM346 16.625C346 22.341 349.236 26.9086 355.321 30.3398L356.304 28.5977C350.639 25.4039 348 21.409 348 16.625H346ZM355.345 30.3525C356.451 30.9383 360.061 32.5516 366.103 35.1677L366.897 33.3323C360.814 30.6984 357.299 29.1242 356.28 28.585L355.345 30.3525ZM366.094 35.1638C371.695 37.6534 374.996 40.0787 376.324 42.3489L378.051 41.3386C376.379 38.4838 372.555 35.8466 366.906 33.3362L366.094 35.1638ZM376.317 42.3358C377.043 43.6198 377.406 45.0122 377.406 46.5312H379.406C379.406 44.6753 378.957 42.9427 378.058 41.3517L376.317 42.3358ZM377.406 46.5312C377.406 48.5505 376.918 50.2319 375.983 51.6212C375.045 53.0147 373.612 54.1805 371.616 55.0901L372.446 56.9099C374.701 55.882 376.455 54.5009 377.642 52.7382C378.832 50.9713 379.406 48.887 379.406 46.5312H377.406ZM371.63 55.0838C369.771 55.8974 367.691 56.3125 365.375 56.3125V58.3125C367.934 58.3125 370.292 57.8526 372.432 56.9162L371.63 55.0838ZM365.388 56.3126C360.821 56.2529 357.39 54.8376 354.959 52.1633C352.503 49.4621 350.954 45.3521 350.433 39.6897L348.442 39.8728C348.984 45.7729 350.622 50.3661 353.479 53.5086C356.36 56.678 360.367 58.2471 365.362 58.3124L365.388 56.3126ZM349.438 38.7812H346.625V40.7812H349.438V38.7812ZM345.625 39.7812V59.1875H347.625V39.7812H345.625ZM346.625 60.1875C347.455 60.1875 348.223 60.0692 348.853 59.7538C349.521 59.4202 350.003 58.8786 350.212 58.1497L348.288 57.6003C348.247 57.7464 348.167 57.861 347.959 57.9649C347.715 58.0871 347.295 58.1875 346.625 58.1875V60.1875ZM350.22 58.1175C350.379 57.4836 350.438 56.4628 350.438 55.1562H348.438C348.438 56.4747 348.371 57.2664 348.28 57.6325L350.22 58.1175ZM348.885 55.99C353.872 59.2927 359.535 60.9375 365.844 60.9375V58.9375C359.903 58.9375 354.628 57.3948 349.99 54.3225L348.885 55.99ZM365.844 60.9375C373.212 60.9375 379.057 58.9474 383.233 54.8377L381.83 53.4123C378.131 57.0526 372.851 58.9375 365.844 58.9375V60.9375ZM383.246 54.8239C386.115 51.8889 387.562 48.3575 387.562 44.2812H385.562C385.562 47.83 384.323 50.8611 381.816 53.4261L383.246 54.8239ZM417.969 59V60H418.969V59H417.969ZM416.469 56.6562L416.273 57.6369L416.284 57.6391L416.469 56.6562ZM410.562 56.5625H409.562V57.5625H410.562V56.5625ZM410.562 5.1875V4.1875H409.562V5.1875H410.562ZM417.969 5.1875V6.1875H418.969V5.1875H417.969ZM417.969 2.75H418.969V1.75H417.969V2.75ZM395 2.75V1.75H394V2.75H395ZM395 5.1875H394V6.1875H395V5.1875ZM402.5 5.1875H403.5V4.1875H402.5V5.1875ZM402.5 56.5625V57.5625H403.5V56.5625H402.5ZM395 56.5625V55.5625H394V56.5625H395ZM395 59H394V60H395V59ZM418.969 59C418.969 58.208 418.827 57.4553 418.436 56.8438C418.022 56.1969 417.395 55.8125 416.653 55.6734L416.284 57.6391C416.542 57.6875 416.665 57.7875 416.751 57.9219C416.86 58.0916 416.969 58.417 416.969 59H418.969ZM416.665 55.6757C416.289 55.6005 415.911 55.5625 415.531 55.5625V57.5625C415.777 57.5625 416.023 57.587 416.273 57.6368L416.665 55.6757ZM415.531 55.5625H410.562V57.5625H415.531V55.5625ZM411.562 56.5625V5.1875H409.562V56.5625H411.562ZM410.562 6.1875H417.969V4.1875H410.562V6.1875ZM418.969 5.1875V2.75H416.969V5.1875H418.969ZM417.969 1.75H395V3.75H417.969V1.75ZM394 2.75V5.1875H396V2.75H394ZM395 6.1875H402.5V4.1875H395V6.1875ZM401.5 5.1875V56.5625H403.5V5.1875H401.5ZM402.5 55.5625H395V57.5625H402.5V55.5625ZM394 56.5625V59H396V56.5625H394ZM395 60H417.969V58H395V60ZM479.188 59V60H480.188V59H479.188ZM477.688 56.6562L477.491 57.6369L477.503 57.6391L477.688 56.6562ZM473.562 56.5625L472.634 56.9331L472.885 57.5625H473.562V56.5625ZM452.094 2.75L453.023 2.37945L452.771 1.75H452.094V2.75ZM448.625 2.75V1.75H447.942L447.693 2.38646L448.625 2.75ZM427.625 56.5625V57.5625H428.308L428.557 56.926L427.625 56.5625ZM421.719 56.5625V55.5625H420.719V56.5625H421.719ZM421.719 59H420.719V60H421.719V59ZM438.406 59V60H439.406V59H438.406ZM436.906 56.6562L436.71 57.6369L436.722 57.6391L436.906 56.6562ZM431.375 56.5625L430.442 56.2019L429.916 57.5625H431.375V56.5625ZM438.406 38.375V37.375H437.721L437.474 38.0144L438.406 38.375ZM458 38.375L458.933 38.0144L458.686 37.375H458V38.375ZM465.031 56.5625V57.5625H466.49L465.964 56.2019L465.031 56.5625ZM458.938 56.5625V55.5625H457.938V56.5625H458.938ZM458.938 59H457.938V60H458.938V59ZM456.969 35.6562V36.6562H458.43L457.901 35.2942L456.969 35.6562ZM439.438 35.6562L438.504 35.2975L437.982 36.6562H439.438V35.6562ZM448.156 12.9688L449.088 12.6067L448.151 10.194L447.223 12.61L448.156 12.9688ZM480.188 59C480.188 58.208 480.046 57.4553 479.655 56.8438C479.241 56.1969 478.614 55.8125 477.872 55.6734L477.503 57.6391C477.761 57.6875 477.884 57.7875 477.97 57.9219C478.079 58.0916 478.188 58.417 478.188 59H480.188ZM477.884 55.6757C477.508 55.6005 477.13 55.5625 476.75 55.5625V57.5625C476.995 57.5625 477.242 57.587 477.491 57.6368L477.884 55.6757ZM476.75 55.5625H473.562V57.5625H476.75V55.5625ZM474.491 56.1919L453.023 2.37945L451.165 3.12055L472.634 56.9331L474.491 56.1919ZM452.094 1.75H448.625V3.75H452.094V1.75ZM447.693 2.38646L426.693 56.199L428.557 56.926L449.557 3.11354L447.693 2.38646ZM427.625 55.5625H421.719V57.5625H427.625V55.5625ZM420.719 56.5625V59H422.719V56.5625H420.719ZM421.719 60H438.406V58H421.719V60ZM439.406 59C439.406 58.208 439.265 57.4553 438.874 56.8438C438.46 56.1969 437.833 55.8125 437.091 55.6734L436.722 57.6391C436.98 57.6875 437.103 57.7875 437.189 57.9219C437.298 58.0916 437.406 58.417 437.406 59H439.406ZM437.102 55.6757C436.727 55.6005 436.348 55.5625 435.969 55.5625V57.5625C436.214 57.5625 436.461 57.587 436.71 57.6368L437.102 55.6757ZM435.969 55.5625H431.375V57.5625H435.969V55.5625ZM432.308 56.9231L439.339 38.7356L437.474 38.0144L430.442 56.2019L432.308 56.9231ZM438.406 39.375H458V37.375H438.406V39.375ZM457.067 38.7356L464.099 56.9231L465.964 56.2019L458.933 38.0144L457.067 38.7356ZM465.031 55.5625H458.938V57.5625H465.031V55.5625ZM457.938 56.5625V59H459.938V56.5625H457.938ZM458.938 60H479.188V58H458.938V60ZM456.969 34.6562H439.438V36.6562H456.969V34.6562ZM440.371 36.015L449.09 13.3275L447.223 12.61L438.504 35.2975L440.371 36.015ZM447.224 13.3308L456.037 36.0183L457.901 35.2942L449.088 12.6067L447.224 13.3308ZM56.9844 115.75V114.75H55.9844V115.75H56.9844ZM56.9844 118.188H55.9844V119.188H56.9844V118.188ZM64.4844 118.188H65.4844V117.188H64.4844V118.188ZM64.4844 169.562V170.562H65.4844V169.562H64.4844ZM56.9844 169.562V168.562H55.9844V169.562H56.9844ZM56.9844 172H55.9844V173H56.9844V172ZM103.672 164.125L102.977 163.405L102.977 163.406L103.672 164.125ZM99.9219 120.25L100.458 119.406L100.451 119.401L99.9219 120.25ZM101.328 131.688L100.363 131.949L100.366 131.96L101.328 131.688ZM86.7969 169.281L86.6457 168.293L86.6409 168.293L86.7969 169.281ZM72.5469 169.562H71.5469V170.562H72.5469V169.562ZM72.5469 118.188V117.188H71.5469V118.188H72.5469ZM55.9844 115.75V118.188H57.9844V115.75H55.9844ZM56.9844 119.188H64.4844V117.188H56.9844V119.188ZM63.4844 118.188V169.562H65.4844V118.188H63.4844ZM64.4844 168.562H56.9844V170.562H64.4844V168.562ZM55.9844 169.562V172H57.9844V169.562H55.9844ZM56.9844 173H82.8594V171H56.9844V173ZM82.8594 173C91.5232 173 98.7202 170.296 104.366 164.844L102.977 163.406C97.7485 168.454 91.0705 171 82.8594 171V173ZM104.366 164.845C109.96 159.446 112.734 152.425 112.734 143.875H110.734C110.734 151.95 108.134 158.429 102.977 163.405L104.366 164.845ZM112.734 143.875C112.734 132.844 108.67 124.62 100.458 119.406L99.3859 121.094C106.924 125.88 110.734 133.406 110.734 143.875H112.734ZM100.451 119.401C95.4606 116.291 89.6788 114.75 83.1406 114.75V116.75C89.3525 116.75 94.7582 118.209 99.3929 121.099L100.451 119.401ZM83.1406 114.75H56.9844V116.75H83.1406V114.75ZM82.8594 119.188C87.6473 119.188 91.4303 120.277 94.2927 122.37C97.1493 124.458 99.1899 127.618 100.363 131.949L102.293 131.426C101.029 126.757 98.7726 123.167 95.4729 120.755C92.1791 118.348 87.9464 117.188 82.8594 117.188V119.188ZM100.366 131.96C101.272 135.16 101.734 139.002 101.734 143.5H103.734C103.734 138.873 103.26 134.84 102.29 131.415L100.366 131.96ZM101.734 143.5C101.734 151.188 100.419 157.016 97.8994 161.091C95.4081 165.121 91.6896 167.521 86.6457 168.293L86.9481 170.27C92.5292 169.416 96.7794 166.707 99.6006 162.143C102.394 157.625 103.734 151.374 103.734 143.5H101.734ZM86.6409 168.293C85.507 168.473 84.3405 168.562 83.1406 168.562V170.562C84.4408 170.562 85.7117 170.465 86.9528 170.269L86.6409 168.293ZM83.1406 168.562H72.5469V170.562H83.1406V168.562ZM73.5469 169.562V118.188H71.5469V169.562H73.5469ZM72.5469 119.188H82.8594V117.188H72.5469V119.188ZM164.328 132.625V133.625H165.356L165.328 132.597L164.328 132.625ZM163.859 115.75L164.859 115.722L164.832 114.75H163.859V115.75ZM120.641 115.75V114.75H119.641V115.75H120.641ZM120.641 118.188H119.641V119.188H120.641V118.188ZM128.141 118.188H129.141V117.188H128.141V118.188ZM128.141 169.562V170.562H129.141V169.562H128.141ZM120.641 169.562V168.562H119.641V169.562H120.641ZM120.641 172H119.641V173H120.641V172ZM163.859 172V173H164.832L164.859 172.028L163.859 172ZM164.328 155.125L165.328 155.153L165.356 154.125H164.328V155.125ZM162.453 155.125V154.125H161.708L161.495 154.84L162.453 155.125ZM161.141 159.531L160.182 159.246L160.181 159.249L161.141 159.531ZM154.203 169.094L154.519 170.043L154.531 170.039L154.203 169.094ZM136.203 169.562H135.203V170.562H136.203V169.562ZM136.203 144.344V143.344H135.203V144.344H136.203ZM155.516 144.344V145.344H156.516V144.344H155.516ZM155.516 141.625H156.516V140.625H155.516V141.625ZM136.203 141.625H135.203V142.625H136.203V141.625ZM136.203 118.188V117.188H135.203V118.188H136.203ZM160.859 127.281L159.907 127.586L159.911 127.597L160.859 127.281ZM161.141 128.219L160.17 128.461L160.176 128.483L160.182 128.504L161.141 128.219ZM162.453 132.625L161.495 132.91L161.708 133.625H162.453V132.625ZM165.328 132.597L164.859 115.722L162.86 115.778L163.329 132.653L165.328 132.597ZM163.859 114.75H120.641V116.75H163.859V114.75ZM119.641 115.75V118.188H121.641V115.75H119.641ZM120.641 119.188H128.141V117.188H120.641V119.188ZM127.141 118.188V169.562H129.141V118.188H127.141ZM128.141 168.562H120.641V170.562H128.141V168.562ZM119.641 169.562V172H121.641V169.562H119.641ZM120.641 173H163.859V171H120.641V173ZM164.859 172.028L165.328 155.153L163.329 155.097L162.86 171.972L164.859 172.028ZM164.328 154.125H162.453V156.125H164.328V154.125ZM161.495 154.84L160.182 159.246L162.099 159.817L163.412 155.41L161.495 154.84ZM160.181 159.249C158.646 164.469 156.468 167.249 153.875 168.149L154.531 170.039C158.063 168.813 160.51 165.219 162.1 159.813L160.181 159.249ZM153.887 168.145C153.059 168.421 152.166 168.562 151.203 168.562V170.562C152.365 170.562 153.472 170.391 154.519 170.042L153.887 168.145ZM151.203 168.562H136.203V170.562H151.203V168.562ZM137.203 169.562V144.344H135.203V169.562H137.203ZM136.203 145.344H155.516V143.344H136.203V145.344ZM156.516 144.344V141.625H154.516V144.344H156.516ZM155.516 140.625H136.203V142.625H155.516V140.625ZM137.203 141.625V118.188H135.203V141.625H137.203ZM136.203 119.188H151.203V117.188H136.203V119.188ZM151.203 119.188C153.203 119.188 154.886 119.851 156.307 121.189C157.75 122.548 158.968 124.649 159.907 127.586L161.812 126.977C160.813 123.851 159.453 121.405 157.678 119.733C155.879 118.039 153.703 117.188 151.203 117.188V119.188ZM159.911 127.597C160.031 127.96 160.117 128.245 160.17 128.461L162.111 127.976C162.04 127.692 161.937 127.353 161.808 126.965L159.911 127.597ZM160.182 128.504L161.495 132.91L163.412 132.34L162.099 127.933L160.182 128.504ZM162.453 133.625H164.328V131.625H162.453V133.625ZM205.578 143.875L206.068 143.003L206.056 142.997L206.044 142.99L205.578 143.875ZM194.609 138.906L195.011 137.99L195.002 137.987L194.609 138.906ZM184.109 131.594L183.231 132.073L183.237 132.082L183.242 132.092L184.109 131.594ZM189.078 118.469L188.712 117.538L188.707 117.54L189.078 118.469ZM206.891 122.781L207.693 122.185L207.688 122.177L207.682 122.17L206.891 122.781ZM209.516 131.688L208.516 131.67L208.498 132.688H209.516V131.688ZM212.328 131.688V132.688H213.328V131.688H212.328ZM212.328 115.281H213.328V114.281H212.328V115.281ZM209.703 116.688L210.665 116.962L210.667 116.954L210.669 116.945L209.703 116.688ZM209.516 118.469L209.034 119.345L210.516 120.159V118.469H209.516ZM178.766 120.438L178.059 119.73L178.05 119.739L178.041 119.748L178.766 120.438ZM183.828 142.469L183.337 143.34L183.349 143.346L183.36 143.353L183.828 142.469ZM194.516 147.25L194.922 146.336L194.913 146.332L194.516 147.25ZM205.203 154.844L206.074 154.352L206.07 154.345L206.066 154.339L205.203 154.844ZM200.047 169L200.448 169.916L200.455 169.913L200.462 169.91L200.047 169ZM193.391 170.312L193.378 171.312H193.391V170.312ZM177.453 152.781L178.449 152.69L178.365 151.781H177.453V152.781ZM174.641 152.781V151.781H173.641V152.781H174.641ZM174.641 172.188H173.641V173.188H174.641V172.188ZM177.266 170.875L178.227 171.15L178.232 171.134L178.236 171.118L177.266 170.875ZM177.453 168.156L178.005 167.323L176.453 166.294V168.156H177.453ZM210.547 167.125L211.248 167.838L211.255 167.831L211.262 167.824L210.547 167.125ZM215.578 157.281C215.578 151.267 212.295 146.506 206.068 143.003L205.088 144.747C210.861 147.994 213.578 152.171 213.578 157.281H215.578ZM206.044 142.99C204.817 142.344 201.119 140.671 195.011 137.991L194.208 139.822C200.349 142.517 203.964 144.156 205.112 144.76L206.044 142.99ZM195.002 137.987C189.46 135.62 186.238 133.289 184.976 131.095L183.242 132.092C184.856 134.898 188.634 137.442 194.217 139.826L195.002 137.987ZM184.987 131.115C184.317 129.886 183.984 128.582 183.984 127.188H181.984C181.984 128.918 182.402 130.551 183.231 132.073L184.987 131.115ZM183.984 127.188C183.984 125.261 184.449 123.697 185.327 122.44C186.208 121.18 187.557 120.154 189.45 119.397L188.707 117.54C186.537 118.408 184.839 119.648 183.688 121.294C182.535 122.944 181.984 124.927 181.984 127.188H183.984ZM189.444 119.4C191.063 118.763 192.875 118.438 194.891 118.438V116.438C192.657 116.438 190.593 116.799 188.712 117.538L189.444 119.4ZM194.891 118.438C199.889 118.438 203.571 120.118 206.099 123.392L207.682 122.17C204.71 118.32 200.392 116.438 194.891 116.438V118.438ZM206.088 123.378C207.749 125.612 208.575 128.355 208.516 131.67L210.515 131.705C210.581 128.02 209.657 124.826 207.693 122.185L206.088 123.378ZM209.516 132.688H212.328V130.688H209.516V132.688ZM213.328 131.688V115.281H211.328V131.688H213.328ZM212.328 114.281C211.491 114.281 210.713 114.409 210.075 114.751C209.4 115.113 208.935 115.687 208.737 116.43L210.669 116.945C210.721 116.751 210.819 116.621 211.019 116.514C211.256 116.387 211.666 116.281 212.328 116.281V114.281ZM208.742 116.413C208.58 116.979 208.516 117.678 208.516 118.469H210.516C210.516 117.76 210.576 117.271 210.665 116.962L208.742 116.413ZM209.997 117.592C205.398 115.066 200.229 113.812 194.516 113.812V115.812C199.927 115.812 204.758 116.997 209.034 119.345L209.997 117.592ZM194.516 113.812C187.576 113.812 182.044 115.745 178.059 119.73L179.473 121.145C182.988 117.63 187.955 115.812 194.516 115.812V113.812ZM178.041 119.748C175.371 122.551 174.016 125.858 174.016 129.625H176.016C176.016 126.392 177.16 123.574 179.49 121.127L178.041 119.748ZM174.016 129.625C174.016 135.341 177.251 139.909 183.337 143.34L184.319 141.598C178.655 138.404 176.016 134.409 176.016 129.625H174.016ZM183.36 143.353C184.467 143.938 188.076 145.552 194.118 148.168L194.913 146.332C188.83 143.698 185.315 142.124 184.296 141.585L183.36 143.353ZM194.109 148.164C199.711 150.653 203.011 153.079 204.34 155.349L206.066 154.339C204.395 151.484 200.57 148.847 194.922 146.336L194.109 148.164ZM204.333 155.336C205.058 156.62 205.422 158.012 205.422 159.531H207.422C207.422 157.675 206.973 155.943 206.074 154.352L204.333 155.336ZM205.422 159.531C205.422 161.55 204.934 163.232 203.999 164.621C203.06 166.015 201.627 167.181 199.632 168.09L200.462 169.91C202.717 168.882 204.471 167.501 205.658 165.738C206.847 163.971 207.422 161.887 207.422 159.531H205.422ZM199.646 168.084C197.786 168.897 195.706 169.312 193.391 169.312V171.312C195.95 171.312 198.307 170.853 200.448 169.916L199.646 168.084ZM193.404 169.313C188.837 169.253 185.406 167.838 182.974 165.163C180.519 162.462 178.969 158.352 178.449 152.69L176.457 152.873C176.999 158.773 178.638 163.366 181.494 166.509C184.376 169.678 188.382 171.247 193.378 171.312L193.404 169.313ZM177.453 151.781H174.641V153.781H177.453V151.781ZM173.641 152.781V172.188H175.641V152.781H173.641ZM174.641 173.188C175.471 173.188 176.238 173.069 176.869 172.754C177.536 172.42 178.019 171.879 178.227 171.15L176.304 170.6C176.262 170.746 176.183 170.861 175.975 170.965C175.73 171.087 175.311 171.188 174.641 171.188V173.188ZM178.236 171.118C178.394 170.484 178.453 169.463 178.453 168.156H176.453C176.453 169.475 176.387 170.266 176.295 170.632L178.236 171.118ZM176.901 168.99C181.887 172.293 187.551 173.938 193.859 173.938V171.938C187.918 171.938 182.644 170.395 178.005 167.323L176.901 168.99ZM193.859 173.938C201.227 173.938 207.072 171.947 211.248 167.838L209.845 166.412C206.146 170.053 200.867 171.938 193.859 171.938V173.938ZM211.262 167.824C214.13 164.889 215.578 161.357 215.578 157.281H213.578C213.578 160.83 212.338 163.861 209.832 166.426L211.262 167.824ZM245.984 172V173H246.984V172H245.984ZM244.484 169.656L244.288 170.637L244.3 170.639L244.484 169.656ZM238.578 169.562H237.578V170.562H238.578V169.562ZM238.578 118.188V117.188H237.578V118.188H238.578ZM245.984 118.188V119.188H246.984V118.188H245.984ZM245.984 115.75H246.984V114.75H245.984V115.75ZM223.016 115.75V114.75H222.016V115.75H223.016ZM223.016 118.188H222.016V119.188H223.016V118.188ZM230.516 118.188H231.516V117.188H230.516V118.188ZM230.516 169.562V170.562H231.516V169.562H230.516ZM223.016 169.562V168.562H222.016V169.562H223.016ZM223.016 172H222.016V173H223.016V172ZM246.984 172C246.984 171.208 246.843 170.455 246.452 169.844C246.038 169.197 245.411 168.812 244.669 168.673L244.3 170.639C244.558 170.688 244.681 170.787 244.767 170.922C244.876 171.092 244.984 171.417 244.984 172H246.984ZM244.68 168.676C244.305 168.601 243.927 168.562 243.547 168.562V170.562C243.792 170.562 244.039 170.587 244.288 170.637L244.68 168.676ZM243.547 168.562H238.578V170.562H243.547V168.562ZM239.578 169.562V118.188H237.578V169.562H239.578ZM238.578 119.188H245.984V117.188H238.578V119.188ZM246.984 118.188V115.75H244.984V118.188H246.984ZM245.984 114.75H223.016V116.75H245.984V114.75ZM222.016 115.75V118.188H224.016V115.75H222.016ZM223.016 119.188H230.516V117.188H223.016V119.188ZM229.516 118.188V169.562H231.516V118.188H229.516ZM230.516 168.562H223.016V170.562H230.516V168.562ZM222.016 169.562V172H224.016V169.562H222.016ZM223.016 173H245.984V171H223.016V173ZM288.641 146.688V145.688H287.641V146.688H288.641ZM288.641 149.125H287.641V150.125H288.641V149.125ZM297.078 149.125H298.078V148.125H297.078V149.125ZM297.078 163.75L297.846 164.39L298.078 164.112V163.75H297.078ZM284.516 170.031L284.433 169.035L284.412 169.036L284.392 169.039L284.516 170.031ZM283.016 170.125L283.006 171.125H283.016V170.125ZM264.266 143.875L263.266 143.875L263.266 143.879L264.266 143.875ZM277.766 118L277.532 117.028L277.521 117.03L277.51 117.033L277.766 118ZM296.703 122.781L297.496 122.172L297.489 122.162L297.481 122.153L296.703 122.781ZM301.766 134.219L300.805 134.497L301.014 135.219H301.766V134.219ZM304.203 134.219V135.219H305.229L305.203 134.193L304.203 134.219ZM303.734 116.031L304.734 116.005L304.703 114.81L303.532 115.052L303.734 116.031ZM295.578 117.719L295.137 118.616L295.445 118.768L295.781 118.698L295.578 117.719ZM263.703 122.219L263.027 121.482L263.024 121.485L263.703 122.219ZM265.578 166.938L264.958 167.722L264.967 167.729L265.578 166.938ZM295.766 169.844L295.318 168.949L295.304 168.957L295.29 168.964L295.766 169.844ZM296.984 169.094L297.327 168.154L296.799 167.962L296.36 168.313L296.984 169.094ZM304.953 172L304.61 172.939L305.953 173.429V172H304.953ZM304.953 149.125V148.125H303.953V149.125H304.953ZM311.984 149.125V150.125H312.984V149.125H311.984ZM311.984 146.688H312.984V145.688H311.984V146.688ZM287.641 146.688V149.125H289.641V146.688H287.641ZM288.641 150.125H297.078V148.125H288.641V150.125ZM296.078 149.125V163.75H298.078V149.125H296.078ZM296.31 163.11C293.371 166.637 289.439 168.617 284.433 169.035L284.599 171.028C290.092 170.57 294.535 168.363 297.846 164.39L296.31 163.11ZM284.392 169.039C283.932 169.096 283.474 169.125 283.016 169.125V171.125C283.557 171.125 284.099 171.091 284.64 171.024L284.392 169.039ZM283.026 169.125C277.069 169.065 272.722 166.959 269.814 162.888C266.863 158.756 265.297 152.469 265.266 143.871L263.266 143.879C263.297 152.656 264.887 159.431 268.186 164.05C271.528 168.728 276.525 171.06 283.006 171.125L283.026 169.125ZM265.266 143.875C265.266 136.521 266.381 130.826 268.527 126.713C270.654 122.637 273.806 120.079 278.021 118.967L277.51 117.033C272.725 118.296 269.128 121.238 266.754 125.787C264.4 130.299 263.266 136.354 263.266 143.875H265.266ZM277.999 118.972C279.479 118.617 281.056 118.438 282.734 118.438V116.438C280.913 116.438 279.178 116.633 277.532 117.028L277.999 118.972ZM282.734 118.438C288.998 118.438 293.308 120.167 295.925 123.409L297.481 122.153C294.348 118.271 289.345 116.438 282.734 116.438V118.438ZM295.911 123.391C297.672 125.681 299.318 129.352 300.805 134.497L302.726 133.941C301.214 128.71 299.484 124.756 297.496 122.172L295.911 123.391ZM301.766 135.219H304.203V133.219H301.766V135.219ZM305.203 134.193L304.734 116.005L302.735 116.057L303.203 134.245L305.203 134.193ZM303.532 115.052L295.376 116.739L295.781 118.698L303.937 117.011L303.532 115.052ZM296.02 116.821C291.943 114.816 287.604 113.812 283.016 113.812V115.812C287.302 115.812 291.338 116.747 295.137 118.616L296.02 116.821ZM283.016 113.812C275.273 113.812 268.592 116.37 263.027 121.482L264.38 122.955C269.565 118.192 275.759 115.812 283.016 115.812V113.812ZM263.024 121.485C256.924 127.13 253.891 134.5 253.891 143.5H255.891C255.891 135 258.732 128.182 264.382 122.953L263.024 121.485ZM253.891 143.5C253.891 153.771 257.567 161.887 264.958 167.722L266.198 166.153C259.34 160.738 255.891 153.229 255.891 143.5H253.891ZM264.967 167.729C270.327 171.862 276.353 173.938 283.016 173.938V171.938C276.803 171.938 271.205 170.013 266.189 166.146L264.967 167.729ZM283.016 173.938C287.855 173.938 292.271 172.871 296.241 170.723L295.29 168.964C291.635 170.941 287.551 171.938 283.016 171.938V173.938ZM296.213 170.738C296.753 170.468 297.225 170.182 297.609 169.875L296.36 168.313C296.119 168.505 295.778 168.719 295.318 168.949L296.213 170.738ZM296.642 170.033L304.61 172.939L305.296 171.061L297.327 168.154L296.642 170.033ZM305.953 172V149.125H303.953V172H305.953ZM304.953 150.125H311.984V148.125H304.953V150.125ZM312.984 149.125V146.688H310.984V149.125H312.984ZM311.984 145.688H288.641V147.688H311.984V145.688ZM357.359 118.188H356.359V119.188H357.359V118.188ZM365.328 118.188H366.328V117.188H365.328V118.188ZM365.328 160.188L364.548 160.813L366.328 163.034V160.188H365.328ZM329.703 115.75L330.483 115.125L330.183 114.75H329.703V115.75ZM316.672 115.75V114.75H315.672V115.75H316.672ZM316.672 118.188H315.672V119.188H316.672V118.188ZM324.172 118.188H325.172V117.188H324.172V118.188ZM324.172 169.562V170.562H325.172V169.562H324.172ZM316.672 169.562V168.562H315.672V169.562H316.672ZM316.672 172H315.672V173H316.672V172ZM335.891 172V173H336.891V172H335.891ZM334.391 169.656L334.194 170.637L334.206 170.639L334.391 169.656ZM327.922 169.562H326.922V170.562H327.922V169.562ZM327.922 126.156L328.704 125.534L326.922 123.293V126.156H327.922ZM364.766 172.469L363.983 173.091L364.37 173.578L364.978 173.446L364.766 172.469ZM369.078 171.531L369.291 172.508L370.078 172.337V171.531H369.078ZM369.078 118.188V117.188H368.078V118.188H369.078ZM376.578 118.188V119.188H377.578V118.188H376.578ZM376.578 115.75H377.578V114.75H376.578V115.75ZM357.359 115.75V114.75H356.359V115.75H357.359ZM357.359 119.188H365.328V117.188H357.359V119.188ZM364.328 118.188V160.188H366.328V118.188H364.328ZM366.108 159.562L330.483 115.125L328.923 116.375L364.548 160.813L366.108 159.562ZM329.703 114.75H316.672V116.75H329.703V114.75ZM315.672 115.75V118.188H317.672V115.75H315.672ZM316.672 119.188H324.172V117.188H316.672V119.188ZM323.172 118.188V169.562H325.172V118.188H323.172ZM324.172 168.562H316.672V170.562H324.172V168.562ZM315.672 169.562V172H317.672V169.562H315.672ZM316.672 173H335.891V171H316.672V173ZM336.891 172C336.891 171.208 336.749 170.455 336.358 169.844C335.944 169.197 335.317 168.812 334.575 168.673L334.206 170.639C334.464 170.688 334.587 170.787 334.673 170.922C334.782 171.092 334.891 171.417 334.891 172H336.891ZM334.587 168.676C334.211 168.601 333.833 168.562 333.453 168.562V170.562C333.698 170.562 333.945 170.587 334.195 170.637L334.587 168.676ZM333.453 168.562H327.922V170.562H333.453V168.562ZM328.922 169.562V126.156H326.922V169.562H328.922ZM327.139 126.779L363.983 173.091L365.548 171.846L328.704 125.534L327.139 126.779ZM364.978 173.446L369.291 172.508L368.866 170.554L364.553 171.492L364.978 173.446ZM370.078 171.531V118.188H368.078V171.531H370.078ZM369.078 119.188H376.578V117.188H369.078V119.188ZM377.578 118.188V115.75H375.578V118.188H377.578ZM376.578 114.75H357.359V116.75H376.578V114.75ZM356.359 115.75V118.188H358.359V115.75H356.359ZM414.078 143.875L414.568 143.003L414.556 142.997L414.544 142.99L414.078 143.875ZM403.109 138.906L403.511 137.99L403.502 137.987L403.109 138.906ZM392.609 131.594L391.731 132.073L391.737 132.082L391.742 132.092L392.609 131.594ZM397.578 118.469L397.212 117.538L397.207 117.54L397.578 118.469ZM415.391 122.781L416.193 122.185L416.188 122.177L416.182 122.17L415.391 122.781ZM418.016 131.688L417.016 131.67L416.998 132.688H418.016V131.688ZM420.828 131.688V132.688H421.828V131.688H420.828ZM420.828 115.281H421.828V114.281H420.828V115.281ZM418.203 116.688L419.165 116.962L419.167 116.954L419.169 116.945L418.203 116.688ZM418.016 118.469L417.534 119.345L419.016 120.159V118.469H418.016ZM387.266 120.438L386.559 119.73L386.55 119.739L386.541 119.748L387.266 120.438ZM392.328 142.469L391.837 143.34L391.849 143.346L391.86 143.353L392.328 142.469ZM403.016 147.25L403.422 146.336L403.413 146.332L403.016 147.25ZM413.703 154.844L414.574 154.352L414.57 154.345L414.566 154.339L413.703 154.844ZM408.547 169L408.948 169.916L408.955 169.913L408.962 169.91L408.547 169ZM401.891 170.312L401.878 171.312H401.891V170.312ZM385.953 152.781L386.949 152.69L386.865 151.781H385.953V152.781ZM383.141 152.781V151.781H382.141V152.781H383.141ZM383.141 172.188H382.141V173.188H383.141V172.188ZM385.766 170.875L386.727 171.15L386.732 171.134L386.736 171.118L385.766 170.875ZM385.953 168.156L386.505 167.323L384.953 166.294V168.156H385.953ZM419.047 167.125L419.748 167.838L419.755 167.831L419.762 167.824L419.047 167.125ZM424.078 157.281C424.078 151.267 420.795 146.506 414.568 143.003L413.588 144.747C419.361 147.994 422.078 152.171 422.078 157.281H424.078ZM414.544 142.99C413.317 142.344 409.619 140.671 403.511 137.991L402.708 139.822C408.849 142.517 412.464 144.156 413.612 144.76L414.544 142.99ZM403.502 137.987C397.96 135.62 394.738 133.289 393.476 131.095L391.742 132.092C393.356 134.898 397.134 137.442 402.717 139.826L403.502 137.987ZM393.487 131.115C392.817 129.886 392.484 128.582 392.484 127.188H390.484C390.484 128.918 390.902 130.551 391.731 132.073L393.487 131.115ZM392.484 127.188C392.484 125.261 392.949 123.697 393.827 122.44C394.708 121.18 396.057 120.154 397.95 119.397L397.207 117.54C395.037 118.408 393.339 119.648 392.188 121.294C391.035 122.944 390.484 124.927 390.484 127.188H392.484ZM397.944 119.4C399.563 118.763 401.375 118.438 403.391 118.438V116.438C401.157 116.438 399.093 116.799 397.212 117.538L397.944 119.4ZM403.391 118.438C408.389 118.438 412.071 120.118 414.599 123.392L416.182 122.17C413.21 118.32 408.892 116.438 403.391 116.438V118.438ZM414.588 123.378C416.249 125.612 417.075 128.355 417.016 131.67L419.015 131.705C419.081 128.02 418.157 124.826 416.193 122.185L414.588 123.378ZM418.016 132.688H420.828V130.688H418.016V132.688ZM421.828 131.688V115.281H419.828V131.688H421.828ZM420.828 114.281C419.991 114.281 419.213 114.409 418.575 114.751C417.9 115.113 417.435 115.687 417.237 116.43L419.169 116.945C419.221 116.751 419.319 116.621 419.519 116.514C419.756 116.387 420.166 116.281 420.828 116.281V114.281ZM417.242 116.413C417.08 116.979 417.016 117.678 417.016 118.469H419.016C419.016 117.76 419.076 117.271 419.165 116.962L417.242 116.413ZM418.497 117.592C413.898 115.066 408.729 113.812 403.016 113.812V115.812C408.427 115.812 413.258 116.997 417.534 119.345L418.497 117.592ZM403.016 113.812C396.076 113.812 390.544 115.745 386.559 119.73L387.973 121.145C391.488 117.63 396.455 115.812 403.016 115.812V113.812ZM386.541 119.748C383.871 122.551 382.516 125.858 382.516 129.625H384.516C384.516 126.392 385.66 123.574 387.99 121.127L386.541 119.748ZM382.516 129.625C382.516 135.341 385.751 139.909 391.837 143.34L392.819 141.598C387.155 138.404 384.516 134.409 384.516 129.625H382.516ZM391.86 143.353C392.967 143.938 396.576 145.552 402.618 148.168L403.413 146.332C397.33 143.698 393.815 142.124 392.796 141.585L391.86 143.353ZM402.609 148.164C408.211 150.653 411.511 153.079 412.84 155.349L414.566 154.339C412.895 151.484 409.07 148.847 403.422 146.336L402.609 148.164ZM412.833 155.336C413.558 156.62 413.922 158.012 413.922 159.531H415.922C415.922 157.675 415.473 155.943 414.574 154.352L412.833 155.336ZM413.922 159.531C413.922 161.55 413.434 163.232 412.499 164.621C411.56 166.015 410.127 167.181 408.132 168.09L408.962 169.91C411.217 168.882 412.971 167.501 414.158 165.738C415.347 163.971 415.922 161.887 415.922 159.531H413.922ZM408.146 168.084C406.286 168.897 404.206 169.312 401.891 169.312V171.312C404.45 171.312 406.807 170.853 408.948 169.916L408.146 168.084ZM401.904 169.313C397.337 169.253 393.906 167.838 391.474 165.163C389.019 162.462 387.469 158.352 386.949 152.69L384.957 152.873C385.499 158.773 387.138 163.366 389.994 166.509C392.876 169.678 396.882 171.247 401.878 171.312L401.904 169.313ZM385.953 151.781H383.141V153.781H385.953V151.781ZM382.141 152.781V172.188H384.141V152.781H382.141ZM383.141 173.188C383.971 173.188 384.738 173.069 385.369 172.754C386.036 172.42 386.519 171.879 386.727 171.15L384.804 170.6C384.762 170.746 384.683 170.861 384.475 170.965C384.23 171.087 383.811 171.188 383.141 171.188V173.188ZM386.736 171.118C386.894 170.484 386.953 169.463 386.953 168.156H384.953C384.953 169.475 384.887 170.266 384.795 170.632L386.736 171.118ZM385.401 168.99C390.387 172.293 396.051 173.938 402.359 173.938V171.938C396.418 171.938 391.144 170.395 386.505 167.323L385.401 168.99ZM402.359 173.938C409.727 173.938 415.572 171.947 419.748 167.838L418.345 166.412C414.646 170.053 409.367 171.938 402.359 171.938V173.938ZM419.762 167.824C422.63 164.889 424.078 161.357 424.078 157.281H422.078C422.078 160.83 420.838 163.861 418.332 166.426L419.762 167.824Z" fill="black"/>
</svg>
