<svg width="96" height="116" viewBox="0 0 96 116" fill="none" xmlns="http://www.w3.org/2000/svg">
<g filter="url(#filter0_f)">
<path d="M10.5145 24.2609C11.8325 25.9666 13.59 26.1121 15.7871 24.6974C15.9371 24.6169 16.0675 24.5338 16.1783 24.4482L15.5439 23.5586C13.807 24.6531 12.6536 24.8545 12.0837 24.1627C11.683 23.5526 12.0278 22.8085 13.1183 21.9304L20.1294 16.5128C23.2971 14.065 23.7457 11.1888 21.4751 7.88416C21.3211 7.68479 21.167 7.48543 21.0129 7.28606C19.0958 4.80505 17.2361 3.58871 15.4337 3.63704C14.8517 3.66221 14.3724 3.82029 13.9958 4.11129C13.3091 4.64192 13.1586 5.27124 13.5442 5.99923C13.6077 6.12711 13.6822 6.24642 13.7678 6.35718C14.1615 6.86668 14.7737 6.99506 15.6044 6.74233C16.6636 6.41911 17.3136 6.25297 17.5542 6.24391C18.4333 6.23686 19.2151 6.67638 19.8998 7.56245C21.3759 9.74743 21.0653 11.7033 18.9679 13.4302L16.8746 15.0478C12.852 9.84207 9.46427 7.7014 6.71139 8.62573C6.18781 8.81805 5.68234 9.1025 5.195 9.47908C3.51146 10.78 2.93299 12.4122 3.4596 14.3756C3.67809 15.162 4.0441 15.8875 4.55762 16.5521C5.80719 18.1692 7.4137 19.1036 9.37716 19.3553C10.1062 19.4288 10.7803 19.3855 11.3995 19.2254C9.63341 21.0147 9.33839 22.6932 10.5145 24.2609ZM6.73404 16.6215C5.68989 15.2703 5.72362 13.9175 6.83524 12.5632C7.09401 12.2571 7.41169 11.9586 7.78827 11.6676C9.27245 10.5207 10.8729 10.6461 12.5897 12.0437C13.4909 12.7978 14.6201 14.0303 15.9774 15.741L13.3192 17.7951C11.5339 18.6439 9.8348 18.6656 8.22174 17.86C7.60652 17.5217 7.11062 17.1089 6.73404 16.6215ZM20.7986 35.1661L18.9499 32.7737L25.5622 27.6642C27.578 26.1065 29.6744 25.4772 31.8513 25.7762C32.6931 25.9041 33.2535 26.1256 33.5324 26.4408C33.8234 26.8174 33.8118 27.3747 33.4976 28.1128C33.1513 28.9465 33.0536 29.5526 33.2046 29.9312C33.263 30.0984 33.3436 30.2484 33.4463 30.3813C33.9598 31.0459 34.6062 31.2186 35.3856 30.8994C35.5527 30.841 35.7027 30.7604 35.8357 30.6577C36.8325 29.8874 37.048 28.9072 36.4821 27.7171C36.3552 27.4613 36.2148 27.2337 36.0607 27.0344C35.0337 25.7053 33.553 24.9566 31.6187 24.7885C30.7105 24.712 29.8129 24.7865 28.9258 25.012L32.1126 22.3372L28.3896 17.5191L27.5589 18.161L29.4846 20.6531L19.0179 28.7411C17.9989 29.5285 17.1672 29.7112 16.5228 29.2893C16.1552 29.0426 15.6805 28.5427 15.0985 27.7895L14.2678 28.4314L20.6098 36.6387C21.0971 36.2621 21.2345 35.8906 21.0221 35.5241C20.9758 35.4183 20.9013 35.299 20.7986 35.1661ZM31.7382 36.7554C29.0578 38.8266 27.8148 41.3615 28.0091 44.3601C28.1309 46.2118 28.791 47.9129 29.9892 49.4636C31.7694 51.7673 33.9216 52.8815 36.4459 52.806C37.0279 52.7808 37.5671 52.7002 38.0635 52.5643L37.695 51.4693C35.3117 52.002 33.3039 51.3953 31.6717 49.6493C31.5126 49.4892 31.3646 49.3206 31.2277 49.1434C30.0123 47.5706 29.8487 45.7335 30.7368 43.6321C31.4195 42.0432 32.5804 40.6154 34.2197 39.3487C37.1216 37.1063 39.6504 36.3728 41.8062 37.1481C42.7013 37.4824 43.4485 38.0372 44.0476 38.8125C44.9719 40.0087 45.063 41.0881 44.3209 42.0507C44.1779 42.232 43.9438 42.5013 43.6186 42.8588C42.8352 43.6764 42.4697 44.348 42.5221 44.8736C42.5825 45.1807 42.7043 45.4757 42.8876 45.7587C43.4253 46.5461 44.1034 46.7827 44.922 46.4685C45.1113 46.393 45.2724 46.3039 45.4054 46.2012C46.5351 45.3282 46.9092 43.8894 46.5276 41.8846C46.2497 40.4719 45.6485 39.1675 44.7242 37.9713C42.4305 35.0029 39.6227 33.8646 36.301 34.5564C34.7211 34.8927 33.2002 35.6257 31.7382 36.7554ZM42.0193 62.6282L40.7355 60.9668L47.9127 55.4208C49.9285 53.8632 51.9297 53.4312 53.9163 54.125C54.738 54.4099 55.3884 54.8625 55.8677 55.4828C56.9119 56.834 57.008 58.2633 56.1562 59.7707C55.7464 60.4765 55.1759 61.1118 54.4449 61.6767L48.1981 66.5038C47.1791 67.2912 46.3817 67.5183 45.8057 67.185C45.4553 66.9604 44.9891 66.4716 44.4071 65.7184L43.5764 66.3603L49.2251 73.6704C49.7125 73.2939 49.8499 72.9223 49.6375 72.5558C49.5911 72.4501 49.5166 72.3308 49.4139 72.1978L48.1301 70.5365L56.3706 64.1688C58.7852 62.303 59.8082 60.2389 59.4397 57.9764C59.2705 57.1165 58.9121 56.3321 58.3643 55.6232C57.0976 53.984 55.4383 53.0727 53.3862 52.8895C52.5172 52.818 51.6674 52.9086 50.8367 53.1613L61.5028 44.9194L57.6514 39.9352L56.8207 40.5771L58.7464 43.0692L40.8034 56.9342C39.7844 57.7216 38.9527 57.9043 38.3083 57.4825C37.9408 57.2358 37.466 56.7358 36.8841 55.9827L36.0534 56.6246L41.8305 64.1008C42.3178 63.7242 42.4552 63.3527 42.2428 62.9862C42.1965 62.8805 42.122 62.7611 42.0193 62.6282ZM57.0202 82.0413L55.7364 80.3799L69.0275 70.1095L65.0477 64.9592L64.217 65.6011L66.2711 68.2593L55.8044 76.3472C54.7854 77.1346 53.8998 77.2705 53.1476 76.755C52.8023 76.4912 52.3386 75.9827 51.7566 75.2295L50.9259 75.8714L56.8314 83.5138C57.3187 83.1373 57.4562 82.7657 57.2437 82.3992C57.1803 82.2713 57.1058 82.152 57.0202 82.0413ZM74.1869 66.7595C74.9622 66.1604 75.2507 65.3891 75.0523 64.4456C74.9577 64.0942 74.8162 63.7967 74.6279 63.553C74.0288 62.7777 73.2464 62.4978 72.2808 62.7133C71.9516 62.7908 71.654 62.9323 71.3882 63.1377C70.5686 63.771 70.2861 64.573 70.5409 65.5437C70.6406 65.8558 70.7846 66.1337 70.9729 66.3774C71.572 67.1527 72.3458 67.4215 73.2943 67.1839C73.6235 67.1064 73.9211 66.9649 74.1869 66.7595ZM76.2139 81.1264L77.0446 80.4845L72.0634 74.0383L71.2327 74.6802L72.3882 76.1755L64.3893 88.8307C63.4912 90.2323 63.1478 91.276 63.3593 91.9617C63.4539 92.3131 63.6553 92.6882 63.9634 93.0869L64.2972 93.5189L80.2118 88.7039C81.1039 88.4391 81.7287 88.4693 82.0861 88.7945C82.1939 88.8881 82.282 88.9793 82.3505 89.0679C82.727 89.5552 83.0986 89.6927 83.4651 89.4802C83.593 89.4168 83.7123 89.3422 83.823 89.2567L79.8689 84.1396L79.0382 84.7815L80.9639 87.2736L66.3724 91.8091L74.4166 78.8005L76.2139 81.1264ZM90.0579 98.3555C91.2561 99.9061 91.3986 101.441 90.4853 102.961C90.2014 103.463 89.8157 103.902 89.3284 104.279C88.2208 105.135 87.1344 105.125 86.069 104.25C85.5304 103.782 84.8784 103.03 84.1131 101.994L81.4912 98.3947C84.1242 96.537 86.4275 96.0839 88.401 97.0354C89.0606 97.3395 89.6128 97.7795 90.0579 98.3555ZM84.092 112.199L83.7491 111.138C81.4665 111.663 79.5468 111.148 77.9902 109.591C77.7968 109.387 77.6231 109.185 77.4691 108.985C75.6718 106.659 75.9265 104.128 78.2333 101.39C78.8717 100.613 79.6475 99.8547 80.5608 99.1137L83.5755 103.152C85.6195 105.889 87.2179 107.431 88.3708 107.779C89.276 108.034 90.1384 107.846 90.9581 107.212C92.4644 106.048 93.07 104.36 92.775 102.146C92.5787 100.565 91.9328 99.0648 90.8372 97.6471C88.6976 94.8781 86.0137 93.7856 82.7855 94.3696C81.1101 94.6737 79.5192 95.4077 78.0128 96.5717C75.266 98.6943 73.9897 101.255 74.1841 104.253C74.316 106.027 74.9639 107.666 76.1279 109.173C77.9766 111.565 80.2013 112.659 82.8021 112.453C83.2492 112.391 83.6792 112.306 84.092 112.199Z" fill="#6C6A64"/>
</g>
<defs>
<filter id="filter0_f" x="0.271393" y="0.635681" width="95.5761" height="114.842" filterUnits="userSpaceOnUse" color-interpolation-filters="sRGB">
<feFlood flood-opacity="0" result="BackgroundImageFix"/>
<feBlend mode="normal" in="SourceGraphic" in2="BackgroundImageFix" result="shape"/>
<feGaussianBlur stdDeviation="1.5" result="effect1_foregroundBlur"/>
</filter>
</defs>
</svg>
