<svg width="63" height="459" viewBox="0 0 63 459" fill="none" xmlns="http://www.w3.org/2000/svg">
<g filter="url(#filter0_f)">
<path d="M45.3154 442.839L45.3154 445.871L30.7608 445.871C26.8076 445.736 23.8652 444.366 21.9336 441.761C21.0352 440.548 20.586 439.335 20.586 438.122C20.586 435.876 21.8213 434.326 24.292 433.473C25.3701 433.113 26.583 432.934 27.9307 432.934L41.2725 432.934C43.3389 432.934 44.5742 433.428 44.9785 434.416C45.2031 435.045 45.3154 436.123 45.3154 437.65L47 437.65L47 423.163C46.0117 423.163 45.4727 423.5 45.3828 424.174C45.3379 424.354 45.3154 424.578 45.3154 424.848L45.3154 427.88L28.6045 427.88L28.0654 427.88C24.7861 427.161 22.4951 425.566 21.1924 423.096C20.7432 422.152 20.5186 421.254 20.5186 420.4C20.5186 418.109 21.709 416.492 24.0899 415.549C25.2129 415.1 26.4932 414.875 27.9307 414.875L41.2725 414.875C43.3389 414.875 44.5742 415.369 44.9785 416.357C45.2031 416.986 45.3154 418.064 45.3154 419.592L47 419.592L47 404.7C46.0117 404.7 45.4727 405.037 45.3828 405.711C45.3379 405.891 45.3154 406.115 45.3154 406.385L45.3154 409.821L28.6045 409.821C23.9776 409.821 20.7432 411.326 18.9014 414.336C18.0928 415.684 17.6885 417.144 17.6885 418.716C17.6885 422.13 19.2832 424.87 22.4727 426.937C23.2813 427.476 24.1348 427.925 25.0332 428.284C21.4844 429.093 19.1934 430.867 18.1602 433.607C17.8457 434.416 17.6885 435.247 17.6885 436.101C17.6885 439.335 19.0586 442.008 21.7988 444.119C22.7871 444.883 23.8877 445.489 25.1006 445.938L18.3623 446.208L18.3623 455.979L20.0469 455.979L20.0469 450.925L41.2725 450.925C43.3389 450.925 44.5742 451.509 44.9785 452.677C45.2031 453.351 45.3154 454.451 45.3154 455.979L47 455.979L47 441.154C46.0567 441.154 45.5176 441.491 45.3828 442.165C45.3379 442.39 45.3154 442.614 45.3154 442.839ZM57.7139 395.385C57.7139 396.104 57.1748 396.643 56.0967 397.002C54.749 397.497 53.918 397.968 53.6035 398.417C53.334 398.822 53.1992 399.293 53.1992 399.832C53.1992 401.27 53.8281 402.101 55.086 402.326C55.2656 402.371 55.4229 402.393 55.5576 402.393C57.2647 402.393 58.5 401.405 59.2637 399.428C59.6231 398.53 59.8027 397.586 59.8027 396.598C59.8027 393.049 57.624 389.972 53.2666 387.367C51.5147 386.289 49.4258 385.255 47 384.267L22.4053 374.294C21.1475 373.845 20.4287 373.351 20.249 372.812C20.1592 372.498 20.1143 372.138 20.1143 371.734C20.1143 370.835 19.8672 370.319 19.3731 370.184C19.1035 370.094 18.7666 370.049 18.3623 370.049L18.3623 380.291L20.1143 380.291L20.1143 375.373L41.6768 383.997L20.1143 393.229L20.1143 388.714L18.3623 388.714L18.3623 401.854L20.1143 401.854L20.1143 398.552L47 386.423C52.9297 388.939 56.3662 391.297 57.3096 393.498C57.5791 394.127 57.7139 394.756 57.7139 395.385ZM45.3154 339.358L45.3154 342.727L18.3623 342.727L18.3623 353.171L20.0469 353.171L20.0469 347.781L41.2725 347.781C43.3389 347.781 44.5967 348.477 45.0459 349.869C45.2256 350.543 45.3154 351.644 45.3154 353.171L47 353.171L47 337.673C46.0117 337.673 45.4727 338.01 45.3828 338.684C45.3379 338.909 45.3154 339.133 45.3154 339.358ZM8.52442 341.918C6.95216 341.918 5.82911 342.615 5.15528 344.007C4.93067 344.546 4.81837 345.063 4.81837 345.557C4.81837 347.129 5.53712 348.252 6.97462 348.926C7.46876 349.151 7.98536 349.263 8.52442 349.263C10.1865 349.263 11.332 348.522 11.9609 347.039C12.1406 346.545 12.2305 346.051 12.2305 345.557C12.2305 343.985 11.5117 342.884 10.0742 342.255C9.58009 342.031 9.06349 341.918 8.52442 341.918ZM45.3154 318.992L45.3154 322.631L3.20118 322.631L3.20118 332.738L4.88575 332.738L4.88575 327.684L41.2725 327.684C43.3389 327.684 44.5742 328.268 44.9785 329.436C45.2031 330.11 45.3154 331.211 45.3154 332.738L47 332.738L47 317.307C46.0117 317.307 45.4727 317.644 45.3828 318.318C45.3379 318.498 45.3154 318.722 45.3154 318.992ZM45.3154 298.828L45.3154 302.467L3.20118 302.467L3.20118 312.574L4.88575 312.574L4.88575 307.521L41.2725 307.521C43.3389 307.521 44.5742 308.105 44.9785 309.273C45.2031 309.946 45.3154 311.047 45.3154 312.574L47 312.574L47 297.144C46.0117 297.144 45.4727 297.481 45.3828 298.154C45.3379 298.334 45.3154 298.559 45.3154 298.828ZM45.3154 259.932L45.3154 263.301L18.3623 263.301L18.3623 273.881L20.0469 273.881L20.0469 268.355L34.6016 268.355C38.6445 268.355 41.6094 269.77 43.4961 272.6C44.3496 273.858 44.7764 275.161 44.7764 276.508C44.7764 280.192 42.8897 282.326 39.1162 282.91C38.4873 283 37.8135 283.045 37.0947 283.045L18.3623 283.045L18.3623 293.287L20.0469 293.287L20.0469 288.098L36.084 288.098C43.7656 288.053 47.6289 284.841 47.6738 278.463C47.6738 275.093 46.3037 272.331 43.5635 270.174C42.5303 269.366 41.3848 268.714 40.127 268.22L47 267.749L47 258.248C46.0117 258.248 45.4727 258.585 45.3828 259.258C45.3379 259.438 45.3154 259.663 45.3154 259.932ZM45.8545 242.936C45.8545 239.836 44.9111 237.747 43.0244 236.669C42.3506 236.265 41.6094 236.063 40.8008 236.063C38.9141 236.063 37.2969 237.433 35.9492 240.173C35.6348 240.757 35.1856 241.723 34.6016 243.07C33.0742 246.754 31.6367 249.202 30.2891 250.415C28.8066 251.718 27.0772 252.369 25.1006 252.369C22.001 252.369 19.8223 250.662 18.5645 247.248C17.9805 245.676 17.6885 243.969 17.6885 242.127C17.6885 239.162 18.3174 236.602 19.5752 234.445C18.2725 234.445 17.5313 234.131 17.3516 233.502C17.3066 233.232 17.2842 232.941 17.2842 232.626L25.707 232.626L25.707 234.378C21.5742 234.468 19.4854 236.759 19.4404 241.251C19.4404 244.62 20.4287 246.709 22.4053 247.518C22.9443 247.742 23.5059 247.855 24.0898 247.855C26.0215 247.855 27.6611 246.462 29.0088 243.677C29.3232 243.048 29.75 242.06 30.2891 240.712C31.7715 237.073 33.1865 234.648 34.5342 233.435C35.9717 232.132 37.6787 231.481 39.6553 231.481C43.294 231.481 45.7197 233.412 46.9326 237.275C47.4268 238.758 47.6738 240.375 47.6738 242.127C47.6289 245.361 46.8203 248.169 45.2481 250.55C46.416 250.55 47.0898 250.842 47.2695 251.426C47.3145 251.695 47.3369 252.01 47.3369 252.369L37.0947 252.369L37.0947 250.482C42.8897 250.393 45.8096 247.877 45.8545 242.936ZM20.0469 226.748L20.0469 222.031L39.0488 222.031C44.6641 221.716 47.5615 219.133 47.7412 214.282C47.7412 210.149 45.2031 207.566 40.127 206.533C40.082 206.533 40.0371 206.533 39.9922 206.533L39.6553 208.352C43.3838 209.475 45.4053 211.115 45.7197 213.271C45.6299 215.697 43.9004 216.932 40.5313 216.977L20.0469 216.977L20.0469 206.533L18.3623 206.533L18.3623 216.977L10.5459 216.977L11.9609 222.031L18.3623 222.031L18.3623 226.748L20.0469 226.748ZM45.3154 188.391L45.3154 193.242L31.9063 193.242C27.8184 193.242 24.5391 191.984 22.0684 189.469C21.125 188.48 20.6309 187.649 20.5859 186.976C20.5859 186.212 21.1475 185.516 22.2705 184.887C23.5283 184.168 24.2471 183.494 24.4268 182.865C24.5166 182.596 24.5615 182.326 24.5615 182.057C24.5615 180.709 23.9102 179.855 22.6074 179.496C22.3379 179.406 22.0684 179.361 21.7988 179.361C19.7773 179.361 18.542 180.394 18.0928 182.461C18.0029 182.91 17.958 183.337 17.958 183.741C17.958 186.436 19.1035 188.84 21.3945 190.951C22.4727 191.939 23.6856 192.726 25.0332 193.31L18.3623 193.579L18.3623 203.35L20.0469 203.35L20.0469 198.296L41.2725 198.296C43.3389 198.296 44.5742 198.88 44.9785 200.048C45.2031 200.722 45.3154 201.822 45.3154 203.35L47 203.35L47 186.706C46.0117 186.706 45.4727 187.043 45.3828 187.717C45.3379 187.896 45.3154 188.121 45.3154 188.391ZM47.6738 151.988C47.6738 148.529 45.585 146.62 41.4072 146.26C41.1377 146.215 40.8906 146.193 40.666 146.193L40.5986 147.945C43.8779 148.259 45.54 149.135 45.585 150.573C45.4951 151.741 44.3272 152.347 42.0811 152.392L27.8633 152.392C21.4395 152.392 18.0479 155.604 17.6885 162.028C17.6885 162.432 17.6885 162.836 17.6885 163.241C17.6885 168.272 18.8564 171.641 21.1924 173.348C21.9561 173.887 22.7197 174.157 23.4834 174.157C24.876 174.157 25.6846 173.505 25.9092 172.203C25.9541 171.978 25.9766 171.753 25.9766 171.529C25.9766 170.496 25.3252 169.732 24.0225 169.238C22.3604 168.609 21.3721 168.182 21.0576 167.957C19.9346 167.104 19.373 165.779 19.373 163.982C19.6426 159.759 21.9561 157.58 26.3135 157.446L30.5586 157.446C30.5586 168.002 32.7598 174.044 37.1621 175.572C38.0156 175.841 38.9365 175.976 39.9248 175.976C43.3389 175.976 45.6748 174.471 46.9326 171.461C47.4268 170.248 47.6738 168.968 47.6738 167.621C47.6738 164.341 46.5508 161.579 44.3047 159.332C43.4512 158.524 42.5527 157.917 41.6094 157.513C45.6074 156.974 47.6289 155.132 47.6738 151.988ZM44.9785 165.397C44.9785 168.137 43.6084 169.822 40.8682 170.451C40.2393 170.585 39.543 170.653 38.7793 170.653C35.7695 170.653 33.8604 168.923 33.0518 165.464C32.6475 163.622 32.4229 160.95 32.3779 157.446L37.7686 157.446C40.8682 158.12 43.0469 159.759 44.3047 162.365C44.7539 163.398 44.9785 164.409 44.9785 165.397ZM20.0469 143.818L20.0469 139.101L39.0488 139.101C44.6641 138.787 47.5615 136.204 47.7412 131.352C47.7412 127.22 45.2031 124.637 40.127 123.603C40.082 123.603 40.0371 123.603 39.9922 123.603L39.6553 125.423C43.3838 126.546 45.4053 128.185 45.7197 130.342C45.6299 132.767 43.9004 134.003 40.5313 134.048L20.0469 134.048L20.0469 123.603L18.3623 123.603L18.3623 134.048L10.5459 134.048L11.9609 139.101L18.3623 139.101L18.3623 143.818L20.0469 143.818ZM45.3154 106.741L45.3154 110.111L18.3623 110.111L18.3623 120.555L20.0469 120.555L20.0469 115.164L41.2725 115.164C43.3389 115.164 44.5967 115.861 45.0459 117.253C45.2256 117.927 45.3154 119.028 45.3154 120.555L47 120.555L47 105.057C46.0117 105.057 45.4727 105.394 45.3828 106.068C45.3379 106.292 45.3154 106.517 45.3154 106.741ZM8.52441 109.302C6.95215 109.302 5.8291 109.998 5.15527 111.391C4.93066 111.93 4.81836 112.447 4.81836 112.941C4.81836 114.513 5.53711 115.636 6.97461 116.31C7.46875 116.534 7.98535 116.647 8.52441 116.647C10.1865 116.647 11.332 115.906 11.9609 114.423C12.1406 113.929 12.2305 113.435 12.2305 112.941C12.2305 111.368 11.5117 110.268 10.0742 109.639C9.58008 109.414 9.06348 109.302 8.52441 109.302ZM32.6475 93.9226C25.6846 93.9226 21.4395 92.0134 19.9121 88.195C19.5527 87.2068 19.373 86.1736 19.373 85.0954C19.373 80.1091 22.5176 77.2116 28.8066 76.403C29.8848 76.2683 31.0752 76.2009 32.3779 76.2009C39.9248 76.2009 44.3496 78.2673 45.6523 82.4001C45.877 83.2087 45.9893 84.0398 45.9893 84.8933C45.9893 89.4304 43.2939 92.2829 37.9033 93.4509C36.3311 93.7653 34.5791 93.9226 32.6475 93.9226ZM17.6885 84.8933C17.6885 89.2058 19.1709 92.7995 22.1357 95.6745C24.876 98.3249 28.29 99.6501 32.3779 99.6501C38.0381 99.6501 42.2832 97.5837 45.1133 93.4509C46.8203 90.9353 47.6738 88.1501 47.6738 85.0954C47.6738 80.7829 46.1465 77.2116 43.0918 74.3816C40.3066 71.7761 36.8252 70.4734 32.6475 70.4734C26.9873 70.4734 22.7871 72.5622 20.0469 76.74C18.4746 79.2107 17.6885 81.9284 17.6885 84.8933ZM45.3154 51.9269L45.3154 54.9591L30.7607 54.9591C26.583 54.8244 23.5732 53.3419 21.7314 50.5119C20.9678 49.299 20.5859 48.0636 20.5859 46.8058C20.5859 44.0656 21.8662 42.2013 24.4268 41.213C25.46 40.8087 26.6279 40.6066 27.9307 40.6066L41.2725 40.6066C43.3389 40.6066 44.5742 41.1906 44.9785 42.3585C45.2031 43.0324 45.3154 44.133 45.3154 45.6603L47 45.6603L47 30.4992C46.0117 30.4992 45.4727 30.8361 45.3828 31.5099C45.3379 31.6896 45.3154 31.9142 45.3154 32.1837L45.3154 35.5529L28.6045 35.5529C24.1123 35.5529 20.9004 37.1027 18.9687 40.2023C18.1152 41.6398 17.6885 43.1896 17.6885 44.8517C17.6885 48.1759 19.0137 50.9162 21.6641 53.0724C22.6973 53.881 23.8428 54.5324 25.1006 55.0265L18.3623 55.296L18.3623 65.0666L20.0469 65.0666L20.0469 60.0128L41.2725 60.0128C43.3389 60.0128 44.5742 60.5968 44.9785 61.7648C45.2031 62.4386 45.3154 63.5392 45.3154 65.0666L47 65.0666L47 50.2423C46.0117 50.2423 45.4727 50.5793 45.3828 51.2531C45.3379 51.4328 45.3154 51.6574 45.3154 51.9269ZM45.8545 15.3219C45.8545 12.2223 44.9111 10.1334 43.0244 9.05526C42.3506 8.65097 41.6094 8.44882 40.8008 8.44882C38.9141 8.44882 37.2969 9.81894 35.9492 12.5592C35.6348 13.1432 35.1855 14.109 34.6016 15.4566C33.0742 19.1402 31.6367 21.5885 30.2891 22.8014C28.8066 24.1041 27.0771 24.7555 25.1006 24.7555C22.001 24.7555 19.8223 23.0484 18.5644 19.6344C17.9805 18.0621 17.6885 16.3551 17.6885 14.5133C17.6885 11.5484 18.3174 8.98788 19.5752 6.83163C18.2725 6.83163 17.5312 6.51718 17.3516 5.88827C17.3066 5.61874 17.2842 5.32675 17.2842 5.0123L25.707 5.0123L25.707 6.76425C21.5742 6.85409 19.4853 9.14511 19.4404 13.6373C19.4404 17.0064 20.4287 19.0953 22.4053 19.9039C22.9443 20.1285 23.5059 20.2408 24.0898 20.2408C26.0215 20.2408 27.6611 18.8482 29.0088 16.0631C29.3232 15.4342 29.75 14.4459 30.2891 13.0982C31.7715 9.45956 33.1865 7.03378 34.5342 5.82089C35.9717 4.51816 37.6787 3.86679 39.6553 3.86679C43.2939 3.86679 45.7197 5.79843 46.9326 9.66171C47.4268 11.1441 47.6738 12.7613 47.6738 14.5133C47.6289 17.7476 46.8203 20.5553 45.248 22.9361C46.416 22.9361 47.0898 23.2281 47.2695 23.8121C47.3144 24.0816 47.3369 24.3961 47.3369 24.7555L37.0947 24.7555L37.0947 22.8687C42.8896 22.7789 45.8096 20.2633 45.8545 15.3219Z" fill="#A09C8E"/>
</g>
<defs>
<filter id="filter0_f" x="0.201187" y="0.866791" width="62.6016" height="458.112" filterUnits="userSpaceOnUse" color-interpolation-filters="sRGB">
<feFlood flood-opacity="0" result="BackgroundImageFix"/>
<feBlend mode="normal" in="SourceGraphic" in2="BackgroundImageFix" result="shape"/>
<feGaussianBlur stdDeviation="1.5" result="effect1_foregroundBlur"/>
</filter>
</defs>
</svg>
