<svg width="62" height="475" viewBox="0 0 62 475" fill="none" xmlns="http://www.w3.org/2000/svg">
<g filter="url(#filter0_f)">
<path d="M44.6667 439.09L44.6667 442.415L18 442.415L18 452.853L19.6667 452.853L19.6667 447.401L34.0667 447.401C38.0667 447.401 41 448.797 42.8667 451.589C43.7111 452.83 44.1333 454.116 44.1333 455.445C44.1333 459.08 42.2667 461.185 38.5333 461.761C37.9111 461.85 37.2445 461.894 36.5333 461.894L18 461.894L18 472L19.6667 472L19.6667 466.881L35.5333 466.881C43.1333 466.836 46.9556 463.667 47 457.373C47 454.049 45.6445 451.323 42.9333 449.196C41.9111 448.398 40.7778 447.755 39.5333 447.268L46.3333 446.803L46.3333 437.428C45.3556 437.428 44.8222 437.761 44.7333 438.426C44.6889 438.603 44.6667 438.824 44.6667 439.09Z" fill="#A09C8E"/>
<path d="M44.6667 419.993L44.6667 422.985L30.2667 422.985C26.1333 422.852 23.1556 421.39 21.3333 418.597C20.5778 417.401 20.2 416.182 20.2 414.941C20.2 412.237 21.4667 410.398 24 409.423C25.0222 409.024 26.1778 408.824 27.4667 408.824L40.6667 408.824C42.7111 408.824 43.9333 409.4 44.3333 410.553C44.5556 411.218 44.6667 412.303 44.6667 413.81L46.3333 413.81L46.3333 398.852C45.3556 398.852 44.8222 399.184 44.7333 399.849C44.6889 400.026 44.6667 400.248 44.6667 400.514L44.6667 403.838L28.1333 403.838C23.6889 403.838 20.5111 405.367 18.6 408.425C17.7556 409.844 17.3333 411.373 17.3333 413.013C17.3333 416.293 18.6444 418.996 21.2667 421.124C22.2889 421.922 23.4222 422.564 24.6667 423.052L18 423.318L18 432.958L19.6667 432.958L19.6667 427.972L40.6667 427.972C42.7111 427.972 43.9333 428.548 44.3333 429.7C44.5556 430.365 44.6667 431.451 44.6667 432.958L46.3333 432.958L46.3333 418.331C45.3556 418.331 44.8222 418.664 44.7333 419.329C44.6889 419.506 44.6667 419.728 44.6667 419.993Z" fill="#A09C8E"/>
<path d="M44.6667 380.885L44.6667 384.209L18 384.209L18 394.514L19.6667 394.514L19.6667 389.195L40.6667 389.195C42.7111 389.195 43.9556 389.882 44.4 391.256C44.5778 391.921 44.6667 393.007 44.6667 394.514L46.3333 394.514L46.3333 379.223C45.3556 379.223 44.8222 379.555 44.7333 380.22C44.6889 380.442 44.6667 380.663 44.6667 380.885ZM8.26666 383.411C6.71111 383.411 5.6 384.098 4.93333 385.472C4.71111 386.004 4.6 386.514 4.6 387.001C4.6 388.553 5.31111 389.661 6.73333 390.326C7.22222 390.547 7.73333 390.658 8.26667 390.658C9.91111 390.658 11.0444 389.927 11.6667 388.464C11.8444 387.977 11.9333 387.489 11.9333 387.001C11.9333 385.45 11.2222 384.364 9.8 383.744C9.31111 383.522 8.8 383.411 8.26666 383.411Z" fill="#A09C8E"/>
<path d="M19.6667 363.45L18 363.45L18 376.348L19.6667 376.348L19.6667 373.356L42 365.245C44.4889 364.359 45.9333 363.384 46.3333 362.32C46.5556 361.788 46.6667 361.123 46.6667 360.325L46.6667 359.461L22 350.087C20.6222 349.555 19.8667 348.912 19.7333 348.159C19.6889 347.937 19.6667 347.738 19.6667 347.56C19.6667 346.585 19.3333 346.053 18.6667 345.965C18.4444 345.92 18.2222 345.898 18 345.898L18 356.137L19.6667 356.137L19.6667 351.151L42.4 359.594L19.6667 368.104L19.6667 363.45Z" fill="#A09C8E"/>
<path d="M19 328.464C19 325.361 20.3111 323.3 22.9333 322.281C23.7778 321.926 24.6889 321.749 25.6667 321.749C27.8889 321.749 29.2444 322.812 29.7333 324.94C29.9556 326.048 30.0444 327.621 30 329.66L29.8 336.708C24.6889 336.486 21.3556 334.824 19.8 331.721C19.2667 330.702 19 329.616 19 328.464ZM39.9333 316.895L39.3333 318.557C42.7111 320.109 44.6222 322.613 45.0667 326.07C45.1111 326.513 45.1333 326.934 45.1333 327.333C45.1333 331.987 42.3556 334.912 36.8 336.109C35.2445 336.464 33.5333 336.663 31.6667 336.708L31.8 328.729C31.8889 323.322 31.3778 319.843 30.2667 318.291C29.3778 317.095 28.1111 316.496 26.4667 316.496C23.4444 316.496 21.0444 318.026 19.2667 321.084C17.9778 323.256 17.3333 325.76 17.3333 328.596C17.3333 334.137 19.6444 338.104 24.2667 340.497C26.6667 341.738 29.3778 342.359 32.4 342.359C37.9111 342.359 42 340.386 44.6667 336.442C46.2222 334.093 47 331.411 47 328.397C47 323.61 45.2667 320.087 41.8 317.826C41.1778 317.471 40.5556 317.161 39.9333 316.895Z" fill="#A09C8E"/>
<path d="M44.6667 296.602L44.6667 301.389L31.4 301.389C27.3556 301.389 24.1111 300.148 21.6667 297.665C20.7333 296.69 20.2444 295.87 20.2 295.206C20.2 294.452 20.7556 293.765 21.8667 293.145C23.1111 292.435 23.8222 291.771 24 291.15C24.0889 290.884 24.1333 290.618 24.1333 290.352C24.1333 289.023 23.4889 288.18 22.2 287.826C21.9333 287.737 21.6667 287.693 21.4 287.693C19.4 287.693 18.1778 288.712 17.7333 290.751C17.6444 291.194 17.6 291.615 17.6 292.014C17.6 294.674 18.7333 297.045 21 299.128C22.0667 300.103 23.2667 300.879 24.6 301.455L18 301.721L18 311.361L19.6667 311.361L19.6667 306.375L40.6667 306.375C42.7111 306.375 43.9333 306.951 44.3333 308.103C44.5556 308.768 44.6667 309.854 44.6667 311.361L46.3333 311.361L46.3333 294.94C45.3556 294.94 44.8222 295.272 44.7333 295.937C44.6889 296.114 44.6667 296.336 44.6667 296.602Z" fill="#A09C8E"/>
<path d="M45.2 274.048C45.2 270.989 44.2667 268.928 42.4 267.865C41.7333 267.466 41 267.266 40.2 267.266C38.3333 267.266 36.7333 268.618 35.4 271.322C35.0889 271.898 34.6444 272.851 34.0667 274.181C32.5556 277.815 31.1333 280.231 29.8 281.427C28.3333 282.713 26.6222 283.355 24.6667 283.355C21.6 283.355 19.4444 281.671 18.2 278.303C17.6222 276.751 17.3333 275.067 17.3333 273.25C17.3333 270.325 17.9556 267.798 19.2 265.671C17.9111 265.671 17.1778 265.36 17 264.74C16.9556 264.474 16.9333 264.186 16.9333 263.876L25.2667 263.876L25.2667 265.604C21.1778 265.693 19.1111 267.953 19.0667 272.386C19.0667 275.71 20.0444 277.771 22 278.569C22.5333 278.79 23.0889 278.901 23.6667 278.901C25.5778 278.901 27.2 277.527 28.5333 274.779C28.8444 274.158 29.2667 273.183 29.8 271.854C31.2667 268.264 32.6667 265.87 34 264.673C35.4222 263.388 37.1111 262.745 39.0667 262.745C42.6667 262.745 45.0667 264.651 46.2667 268.463C46.7556 269.926 47 271.521 47 273.25C46.9556 276.441 46.1556 279.211 44.6 281.56C45.7556 281.56 46.4222 281.848 46.6 282.425C46.6445 282.691 46.6667 283.001 46.6667 283.355L36.5333 283.355L36.5333 281.494C42.2667 281.405 45.1556 278.923 45.2 274.048Z" fill="#A09C8E"/>
<path d="M44.6667 243.781L44.6667 247.106L18 247.106L18 257.411L19.6667 257.411L19.6667 252.092L40.6667 252.092C42.7111 252.092 43.9556 252.779 44.4 254.153C44.5778 254.818 44.6667 255.904 44.6667 257.411L46.3333 257.411L46.3333 242.119C45.3556 242.119 44.8222 242.452 44.7333 243.117C44.6889 243.338 44.6667 243.56 44.6667 243.781ZM8.26666 246.308C6.7111 246.308 5.59999 246.995 4.93332 248.369C4.7111 248.901 4.59999 249.41 4.59999 249.898C4.59999 251.449 5.3111 252.557 6.73333 253.222C7.22221 253.444 7.73333 253.555 8.26666 253.555C9.9111 253.555 11.0444 252.823 11.6667 251.361C11.8444 250.873 11.9333 250.386 11.9333 249.898C11.9333 248.347 11.2222 247.261 9.79999 246.64C9.3111 246.419 8.79999 246.308 8.26666 246.308Z" fill="#A09C8E"/>
<path d="M19.6667 238.114L19.6667 233.46L38.4667 233.46C44.0222 233.15 46.8889 230.602 47.0667 225.815C47.0667 221.737 44.5556 219.189 39.5333 218.169C39.4889 218.169 39.4444 218.169 39.4 218.169L39.0667 219.964C42.7556 221.072 44.7556 222.69 45.0667 224.818C44.9778 227.211 43.2667 228.43 39.9333 228.474L19.6667 228.474L19.6667 218.169L18 218.169L18 228.474L10.2667 228.474L11.6667 233.46L18 233.46L18 238.114L19.6667 238.114Z" fill="#A09C8E"/>
<path d="M56.9333 210.308C56.9333 211.017 56.4 211.549 55.3333 211.904C54 212.391 53.1778 212.857 52.8667 213.3C52.6 213.699 52.4667 214.164 52.4667 214.696C52.4667 216.114 53.0889 216.934 54.3333 217.156C54.5111 217.2 54.6667 217.222 54.8 217.222C56.4889 217.222 57.7111 216.247 58.4667 214.297C58.8222 213.411 59 212.48 59 211.505C59 208.003 56.8445 204.967 52.5333 202.396C50.8 201.333 48.7333 200.313 46.3333 199.338L22 189.498C20.7555 189.055 20.0444 188.568 19.8667 188.036C19.7778 187.726 19.7333 187.371 19.7333 186.972C19.7333 186.086 19.4889 185.576 19 185.443C18.7333 185.354 18.4 185.31 18 185.31L18 195.416L19.7333 195.416L19.7333 190.562L41.0667 199.072L19.7333 208.181L19.7333 203.726L18 203.726L18 216.69L19.7333 216.69L19.7333 213.433L46.3333 201.466C52.2 203.948 55.6 206.275 56.5333 208.446C56.8 209.067 56.9333 209.687 56.9333 210.308Z" fill="#A09C8E"/>
<path d="M19.6667 155.046L18 155.046L18 168.21L19.6667 168.21L19.6667 165.219L42 156.908C44.5333 155.977 46 155.024 46.4 154.049C46.5778 153.562 46.6667 152.963 46.6667 152.254L46.6667 150.924L29.2 145.14L42 140.686C44.4889 139.844 45.9556 138.979 46.4 138.093C46.5778 137.65 46.6667 137.051 46.6667 136.298L46.6667 135.234L22.0667 127.19C20.6889 126.746 19.9111 126.215 19.7333 125.594C19.6889 125.372 19.6667 125.129 19.6667 124.863C19.6667 123.888 19.3555 123.334 18.7333 123.201C18.5111 123.156 18.2667 123.134 18 123.134L18 132.974L19.6667 132.974L19.6667 128.32L42.6667 135.7L19.6667 143.478L19.6667 138.824L18 138.824L18 149.063L26.4667 146.071L42.8667 151.589L19.6667 160.033L19.6667 155.046Z" fill="#A09C8E"/>
<path d="M32.1333 114.143C25.2444 114.143 21.0444 112.259 19.5333 108.492C19.1778 107.517 19 106.497 19 105.433C19 100.514 22.1111 97.6547 28.3333 96.8569C29.4 96.7239 30.5778 96.6574 31.8667 96.6574C39.3333 96.6574 43.7111 98.6963 45 102.774C45.2222 103.572 45.3333 104.392 45.3333 105.234C45.3333 109.71 42.6667 112.525 37.3333 113.677C35.7778 113.988 34.0444 114.143 32.1333 114.143ZM17.3333 105.234C17.3333 109.489 18.8 113.035 21.7333 115.871C24.4444 118.486 27.8222 119.794 31.8667 119.794C37.4667 119.794 41.6667 117.755 44.4667 113.677C46.1556 111.195 47 108.447 47 105.433C47 101.178 45.4889 97.6547 42.4667 94.8624C39.7111 92.2917 36.2667 91.0063 32.1333 91.0063C26.5333 91.0063 22.3778 93.0673 19.6667 97.1893C18.1111 99.6271 17.3333 102.309 17.3333 105.234Z" fill="#A09C8E"/>
<path d="M44.6667 70.7792L44.6667 75.5661L31.4 75.5661C27.3555 75.5661 24.1111 74.325 21.6667 71.843C20.7333 70.8679 20.2444 70.0479 20.2 69.383C20.2 68.6296 20.7555 67.9426 21.8667 67.322C23.1111 66.6129 23.8222 65.948 24 65.3275C24.0889 65.0616 24.1333 64.7956 24.1333 64.5297C24.1333 63.2 23.4889 62.3579 22.2 62.0033C21.9333 61.9147 21.6667 61.8703 21.4 61.8703C19.4 61.8703 18.1778 62.8898 17.7333 64.9286C17.6444 65.3718 17.6 65.7929 17.6 66.1918C17.6 68.8512 18.7333 71.2224 21 73.3056C22.0667 74.2807 23.2667 75.0564 24.6 75.6325L18 75.8985L18 85.5387L19.6667 85.5387L19.6667 80.5524L40.6667 80.5524C42.7111 80.5524 43.9333 81.1286 44.3333 82.281C44.5556 82.9458 44.6667 84.0317 44.6667 85.5387L46.3333 85.5387L46.3333 69.1171C45.3556 69.1171 44.8222 69.4495 44.7333 70.1144C44.6889 70.2917 44.6667 70.5133 44.6667 70.7792Z" fill="#A09C8E"/>
<path d="M44.6667 45.8317L44.6667 48.8235L34.8 48.8235L31.4 45.1669L46.3333 35.7926L46.3333 26.9502C45.3556 26.9502 44.8222 27.2826 44.7333 27.9475C44.6889 28.1248 44.6667 28.3464 44.6667 28.6123L44.6667 31.0058L28.1333 41.7097L22.2667 35.4602C20.8 33.9089 19.9778 32.7343 19.8 31.9365C19.7111 31.582 19.6667 31.183 19.6667 30.7398C19.6667 29.7647 19.3333 29.2328 18.6667 29.1442C18.4444 29.0999 18.2222 29.0777 18 29.0777L18 40.38L19.6667 40.38L19.6667 35.3937L32.1333 48.8235L2.99998 48.8235L2.99998 58.7961L4.66665 58.7961L4.66665 53.8098L40.6667 53.8098C42.7111 53.8098 43.9333 54.386 44.3333 55.5384C44.5556 56.2032 44.6667 57.2891 44.6667 58.7961L46.3333 58.7961L46.3333 44.1696C45.3556 44.1696 44.8222 44.502 44.7333 45.1669C44.6889 45.3442 44.6667 45.5658 44.6667 45.8317Z" fill="#A09C8E"/>
<path d="M45.2 14.3023C45.2 11.244 44.2667 9.183 42.4 8.11926C41.7333 7.72035 41 7.5209 40.2 7.5209C38.3333 7.5209 36.7333 8.87275 35.4 11.5764C35.0889 12.1526 34.6444 13.1056 34.0667 14.4352C32.5555 18.0697 31.1333 20.4853 29.8 21.682C28.3333 22.9674 26.6222 23.6101 24.6667 23.6101C21.6 23.6101 19.4444 21.9258 18.2 18.5573C17.6222 17.006 17.3333 15.3217 17.3333 13.5045C17.3333 10.5792 17.9555 8.05278 19.2 5.92529C17.9111 5.92529 17.1778 5.61503 17 4.99451C16.9555 4.72857 16.9333 4.44047 16.9333 4.13022L25.2667 4.13021L25.2667 5.8588C21.1778 5.94745 19.1111 8.20791 19.0667 12.6402C19.0667 15.9644 20.0444 18.0254 22 18.8232C22.5333 19.0448 23.0889 19.1556 23.6667 19.1556C25.5778 19.1556 27.2 17.7816 28.5333 15.0336C28.8444 14.4131 29.2667 13.438 29.8 12.1083C31.2667 8.51816 32.6667 6.12474 34 4.92802C35.4222 3.64266 37.1111 2.99998 39.0667 2.99998C42.6667 2.99998 45.0667 4.90586 46.2667 8.71762C46.7556 10.1803 47 11.7759 47 13.5045C46.9556 16.6957 46.1556 19.4659 44.6 21.815C45.7556 21.815 46.4222 22.1031 46.6 22.6793C46.6444 22.9452 46.6667 23.2555 46.6667 23.6101L36.5333 23.6101L36.5333 21.7485C42.2667 21.6599 45.1556 19.1778 45.2 14.3023Z" fill="#A09C8E"/>
</g>
<defs>
<filter id="filter0_f" x="-2.00272e-05" y="-1.52588e-05" width="62" height="475" filterUnits="userSpaceOnUse" color-interpolation-filters="sRGB">
<feFlood flood-opacity="0" result="BackgroundImageFix"/>
<feBlend mode="normal" in="SourceGraphic" in2="BackgroundImageFix" result="shape"/>
<feGaussianBlur stdDeviation="1.5" result="effect1_foregroundBlur"/>
</filter>
</defs>
</svg>
